<?xml version="1.0" encoding="UTF-8"?>
<svg id="Layer_2" data-name="Layer 2" xmlns="http://www.w3.org/2000/svg" viewBox="0 0 676.82 586.53">
  <defs>
    <style>
      .cls-1 {
        fill: #556f55;
      }

      .cls-1, .cls-2, .cls-3, .cls-4, .cls-5, .cls-6, .cls-7, .cls-8, .cls-9, .cls-10, .cls-11, .cls-12, .cls-13, .cls-14, .cls-15, .cls-16, .cls-17, .cls-18, .cls-19, .cls-20, .cls-21, .cls-22, .cls-23, .cls-24, .cls-25, .cls-26, .cls-27, .cls-28, .cls-29, .cls-30, .cls-31, .cls-32, .cls-33, .cls-34, .cls-35, .cls-36, .cls-37, .cls-38, .cls-39, .cls-40, .cls-41, .cls-42, .cls-43, .cls-44, .cls-45, .cls-46, .cls-47, .cls-48, .cls-49 {
        stroke-width: 0px;
      }

      .cls-2 {
        fill: #b00b0b;
      }

      .cls-3 {
        fill: #fcfcfc;
      }

      .cls-4 {
        fill: #f2f4f2;
      }

      .cls-5 {
        fill: #f8f9f8;
      }

      .cls-6 {
        fill: #153915;
      }

      .cls-7 {
        fill: #204220;
      }

      .cls-8 {
        fill: #133813;
      }

      .cls-9 {
        fill: #234523;
      }

      .cls-10 {
        fill: #0c320c;
      }

      .cls-11 {
        fill: #aebbae;
      }

      .cls-12 {
        fill: #183c18;
      }

      .cls-13 {
        fill: #4e6a4e;
      }

      .cls-14 {
        fill: #5c755c;
      }

      .cls-15 {
        fill: #0d320d;
      }

      .cls-16 {
        fill: #274927;
      }

      .cls-17 {
        fill: #b10d0d;
      }

      .cls-18 {
        fill: #173a17;
      }

      .cls-19 {
        fill: #fbfbfb;
      }

      .cls-20 {
        fill: #0e330e;
      }

      .cls-21 {
        fill: #0f340f;
      }

      .cls-22 {
        fill: #0e340e;
      }

      .cls-23 {
        fill: #193c19;
      }

      .cls-24 {
        fill: #fdfdfd;
      }

      .cls-25 {
        fill: #3f5d3f;
      }

      .cls-26 {
        fill: #0c310c;
      }

      .cls-27 {
        fill: #fcfdfc;
      }

      .cls-28 {
        fill: #274827;
      }

      .cls-29 {
        fill: #1f411f;
      }

      .cls-30 {
        fill: #264826;
      }

      .cls-31 {
        fill: #fafafa;
      }

      .cls-32 {
        fill: #204320;
      }

      .cls-33 {
        fill: #e9ece9;
      }

      .cls-34 {
        fill: #103510;
      }

      .cls-35 {
        fill: #eceeec;
      }

      .cls-36 {
        fill: #0b310b;
      }

      .cls-37 {
        fill: #f9faf9;
      }

      .cls-38 {
        fill: #214421;
      }

      .cls-39 {
        fill: #fff;
      }

      .cls-40 {
        fill: #617961;
      }

      .cls-41 {
        fill: #798e79;
      }

      .cls-42 {
        fill: #242;
      }

      .cls-43 {
        fill: #a8b6a8;
      }

      .cls-44 {
        fill: #dde2dd;
      }

      .cls-45 {
        fill: #eaedea;
      }

      .cls-46 {
        fill: #fafbfa;
      }

      .cls-47 {
        fill: #fbfcfc;
      }

      .cls-48 {
        fill: #f6f7f6;
      }

      .cls-49 {
        fill: #fefefe;
      }
    </style>
  </defs>
  <g id="Layer_1-2" data-name="Layer 1">
    <g>
      <path class="cls-39" d="M271.35,566.51c56.19,23.41,116.56,26.61,181.46,7.89l35.07-7.19,41.2-24.15,11.69-24.75-57.51-88.28-29.25-33.81-8.19-2.64-38.75,24.31-26.97,9.24-28.45,3.03-8.49-.81-44.17-7.06-19.54,14.73-2.32,122.99"/>
      <g>
        <path class="cls-36" d="M597.04,354.22c2.68-3.7,5.77-6.77,10.2-8.52,5.38-2.13,9.46.39,9.81,6.1.26,4.18-2.09,7.37-3.38,10.95-2.36,6.54-6.34,12.26-9.89,18.18-.22.36-1.34.54-.46,1.19.34.25,1.16.24,1.54,0,4.62-3.01,9.66-4.55,15.17-4.44,4.68.1,7.66,4.93,5.79,9.32-.35.83-.62,1.86-1.27,2.38-3.32,2.7-4.82,6.96-8.27,9.48-2.07,1.51-2.76,4.04-4.53,5.77-3.65,3.58-7.59,6.77-11.89,9.53-.48.31-.87.79-1.25,1.23-4.45,5.26-10.3,8.77-16,12.37-8.48,5.35-17.16,10.4-25.89,15.33-2.99,1.69-5.76,3.78-9.05,5.02-1.88.7-2.82,2.39-3.6,4.64-1.56,4.55-1.89,9.32-3.19,13.89-.36,1.25-1.19,2.36-1.23,3.58-.05,1.46-.86,3.11,1.82,3.97,2,.64,2.91,3.27,2.8,5.71-.19,4.55-.13,9.03-.95,13.62-.95,5.3-.21,10.9-.23,16.37,0,2.26.54,4.7-1.87,6.26-.83.53-.46,1.42-.45,2.15.07,4.74-1.65,8.98-3.52,13.2-3.36,7.56-7.45,14.62-13.88,20.02-1.66,1.39-2.19,3.64-3.75,4.88-5.52,4.38-10.61,9.34-17.11,12.42-5.57,2.64-11.27,5.2-17.2,6.51-5.88,1.3-12.05,3.51-18.23.55-.79-.38-1.93-.08-2.91-.05-10.39.35-19.3-3.99-27.92-9.01-6.28-3.65-12.06-8.13-17.44-12.94-2.97-2.66-5.41-6.14-7.64-9.64-3.05-4.78-6.59-9.22-8.83-14.53-3.13-7.41-6.04-14.84-6.99-22.9-2.02-2-.39-4.87-1.59-6.95-1.39-2.41.13-5.16-.89-7.25-1.28-2.63-.82-5.18-1.06-7.79-.13-1.43.62-2.45,1.09-3.66.53-1.39,1.07-2.49,2.54-2.63,1.72-.17,1.24,1.68,1.7,2.49,2.26,3.99,3.02,8.53,4.08,12.95,2.34,9.72,4.58,19.51,8.58,28.69,2.24,5.14,5.45,9.93,8.64,14.58,6.06,8.85,13.99,15.63,23.7,20.29,4.24,2.03,8.04,4.99,12.84,5.81,2.7.46,5.15,1.91,7.99,1.96,3.38.06,6.7-.16,10.12.98,3.41,1.13,6.89-.88,10.32-1.69,5.71-1.34,10.82-4.11,15.97-6.73,2.94-1.49,5.7-3.54,8.15-5.77,6.37-5.8,12.06-12.26,17-19.32,1.76-2.52,2.93-5.46,4.65-8.01,1.03-1.54,2.68-3.14,1.83-4.79-.65-1.26-2.9-.5-4.38-.4-8.78.63-17.18-1.44-24.95-4.91-9.35-4.17-18.04-9.7-25-17.55-2.72-3.07-5.78-5.83-8.67-8.73-.89-.9-1.76-.71-2.4.21-.83,1.2-1.62,2.45-2.21,3.77-2.05,4.6-4.72,8.7-8.1,12.51-4.23,4.75-7.96,9.94-11.83,15.01-.79,1.04-1.13.83-1.15-.21-.02-1.04-2.13-2.09-.05-3.13,2.88-11.44,5.37-14.06,10.25-23.32,4.53-8.6,9.25-17.21,12.07-26.64,1.19-3.97,2.83-7.81,4.24-11.72,1.03-2.87,2.68-5.28,4.96-7.34,1.82-1.64,3.49-3.39,4.62-5.69,2.93-5.99,3.2-6.06.09-11.97-1.09-2.07-1.89-4.31-3.2-6.35-1.3-2.02-3-3.79-4.36-5.71-2.61-3.69-5.57-7.24-8.81-10.54-3.64-3.7-8.62-5.5-12.01-9.41-.55-.63-1.34-.3-1.98.31-5.85,5.56-12.43,10.17-19.21,14.48-5.36,3.41-10.94,6.45-17.05,8.35-.59.18-.96.53-1.44.79-5.57,3.09-11.62,4.96-17.59,7.06-1.9.67-3.93.98-5.84,1.4-3.77.82-7.55,1.6-11.33,2.36-3.26.66-6.74.15-10.05,1.28-2.08.71-3.98-.6-5.96-1.1-1.8-.46-3.86.77-5.54-.79-.25-.23-.68-.43-.99-.38-1.5.22-3.42-.84-4.42.48-1.08,1.42.76,2.7,1.36,3.89,1.96,3.88,2.84,7.89,3.15,12.21.75,10.39-2,19.81-7.05,28.77-2.21,3.93-4,8.11-5.89,12.21-.85,1.84-2.14,2.45-4.1,2.26-1.1-.1-1.45-.31-1.86-1.5-2.53-7.23-7.77-12.6-13.52-17.17-4.56-3.62-8.43-7.85-12.66-11.75-2.24-2.06-4.17-4.23-4.37-7.61-.05-.84-1.11-1.79-1.07-3.04.09-2.44-1.48-4.51-1.26-7.14.34-3.93,1.14-7.72,2.79-11.18.72-1.51.84-2.09-.21-3.36-1.22-1.47-.81-4.84-2.27-5.04-2.2-.3-1.88,2.98-3.11,4.4-2.92,3.38-4.89,7.66-9.44,9.52-1.5.61-1.73,2.19-1.81,3.92-.23,5.51-1.47,10.93-1.17,16.52.31,5.85.07,11.72.07,17.58v34c0,6.45.08,12.9-.02,19.34-.13,8.22-2.33,15.93-5.18,23.63-1.43,3.85-4.05,6.88-5.46,10.65-.59,1.59-1.92,3.25-4.28,3.27-2.36.02-2.52-.02-2.65-2.44-.27-4.95,1.32-9.51,3.03-14,.58-1.52.07-3.45,1.65-4.62.1-.07-.12-.7-.31-.99-.2-.31-.46-.1-.83.26-1.24,1.23-3.09.56-4.6,1.7-2.93,2.2-6.84,2.71-10.24,3.34-3.62.67-7.27,2.03-11.2,1.54-3.94-.49-7.78,1.96-11.81,1.06-4.3-.96-8.64-.99-13-1.26-4.2-.26-8.51-.97-12.49-2.32-11.41-3.9-22.69-8.21-29.4-19.34-3.22-2.02-4.29-5.67-6.07-8.65-1.61-2.71-2.77-5.84-3.54-9.07-1.27-5.27-4.25-9.96-5.86-15.16-.32-1.03-1.07-2.05-.82-3.14.61-2.65-1.15-4.12-2.84-5.22-1.06-.7-2.85-1.02-2.95-2.24-.2-2.44-2.22-4.61-1.24-7.11,1.2-3.06-.74-6.01-.04-9.01-1.96-1.68-.9-3.95-1.18-5.96-.28-2.01.12-3.92-.93-6.08-1.03-2.11-.69-5.22.94-7.61.2-.3.41-.92.53-.9,2.26.35,2.61-2.58,4.83-2.67,1.25-.05,3.15-1.31,3.48-2.4.36-1.23-.71-2.89-1.18-4.36-.17-.51-.56-.99-.6-1.5-.26-3.34-2.07-5.68-5.15-6.49-3.15-.84-4.95-3.23-7.34-5-5.58-4.13-10.19-9.48-16.31-12.93-.66-.37-1.12-1.08-1.67-1.63-6.91-6.91-14.15-13.52-20.63-20.81-5.8-6.53-11.46-13.28-15.73-20.99-1.23-2.22-3.22-2.9-5.4-3.34-.94-.19-1.95-.07-2.92-.03-8.51.34-16.75-1.17-24.38-4.81-4.71-2.25-7.9-6.28-8.36-11.87-.39-4.76-.07-9.41,2.7-13.53.44-.66.7-1.22.87-2,.43-1.97,1.24-2.89,3.16-4.45.45-.37.86-.8,1.25-1.24,6.69-7.55,14.58-13.86,22.05-20.56,6.59-5.9,12.84-12.25,20.24-17.35,4.28-2.94,8.03-6.81,12.41-9.77.48-.32.88-1.19,1.26-1.15,4.57.45,9.21-1.03,13.74.75,3.05,1.2,6.63,1.17,8.82,4.18.44.61,1.4,1.19,1.38,1.74-.19,3.73,2.24,3.44,4.89,3.94,5.98,1.11,12.16.99,17.99,3.19,2.16.82,4.84,1.09,7.06,1.15,4.97.11,9.65,1.63,14.15,2.93,8.33,2.4,16.75,4.63,24.92,7.7,4.38,1.65,8.78,3.39,13.17,5.03,4.36,1.62,8.43,4.24,12.53,6.64,3.53,2.07,6.06,4.5,8.56,7.56,1.33,1.62,1.27,3.46,2.12,5.07,1.51,2.87,2.32,19.18,1.29,21.62-1.49,3.52-1.14,7.27-2.09,10.84-.58,2.2-1.71,4.06-2.63,5.96-1.29,2.64-7,2.8-8.92.44-3.48-4.28-4.8-9.29-3.35-14.63.35-1.29.59-2.52.65-3.8.03-.71.42-2.06-.38-2.07-1.42-.02-.78,1.44-.71,2.16.32,2.91-2.18,3.18-3.8,4.2-1.51.94-2.89.52-3.99-.87-.24-.31-.5-.67-.83-.81-.96-.42-2.09-.54-1.94.92.27,2.57-.72,4.91-1.85,6.85-1.25,2.13.64,4.62-1.43,6.52-.61.56-.26,2.2-.27,3.35-.02,3.52.07,7.04-.03,10.55-.1,3.6.1,7.12,1.89,10.36.17.32.5.69.44.97-.85,4.46,1.89,8.59,1.18,13-.74,4.56-1.1,9.28-2.62,13.57-1.71,4.83-.63,9.24.37,13.78.17.76,1.2,1.72,1.98,1.87,5.9,1.19,7.66,6.16,9.59,10.7,1.55,3.65,2.76,7.48,3.67,11.39.4,1.72,1.27,3.45,2.33,4.87,2,2.67,3.11,5.75,4.48,8.71.68,1.48,1.31,2.98,2.11,4.4.27.48.64,1.27,1.65.43,4.3-3.57,7.44-8.09,9.16-13.22,1.61-4.8,4.12-9.3,4.93-14.41.24-1.5,1.21-3.01,2.42-4.27,1.41-1.48,1.21-2.82-.55-3.57-7.96-3.41-13.25-10.03-19.25-15.79-.14-.14-.29-.27-.41-.42-3.6-4.21-2.98-7,2.21-8.57,1.23-.37,2.49-1.28,3.57-1.19,5.61.49,9.24-3.32,13.47-5.8,1.9-1.11,3.61-2.57,5.53-3.66,4.44-2.51,9.22-3.8,14.36-3.53,1.41.08,2.2-.22,2.02-1.87-.63-5.73,1.52-11.08,2.36-16.61.36-2.32,2.66-4.04,2.31-6.65,3.43-3.82.89-7.67.33-11.64-.41-2.95-1.58-5.7-1.65-8.79-.09-3.88-1.23-7.58-4.66-10.36-8.09-6.54-10.31-15.6-10.56-25.54-.05-1.93,1.41-3.03,1.35-4.8-.03-.95-.88-2.53.93-2.84,1.36-.23,2.19,1.06,2.64,1.94,1.42,2.77,3.38,4.86,6.22,6.1,1.63.71,2.68-.04,3.08-1.78.69-3.02,1.47-6.02,2.33-9,1.91-6.63,4.08-13.19,5.79-19.87,1.41-5.49,4.04-10.49,6.28-15.57,1.53-3.47,2.13-7.32,4.24-10.58.46-.71.49-2.23-.72-3.15-1.08-.82-1.93-1.94-2.93-2.86-.99-.91-.9-1.54-.34-2.88,3.09-7.32,6.05-14.7,8.63-22.21.54-1.56,1.26-3.02,1.88-4.51,2.49-5.93,2.56-6.01-3.59-5.93-5.48.08-9.28-3.21-12.32-6.85-2.75-3.3-5.32-6.95-7-11.11-1.19-2.94-2.47-5.73-2.31-9.02.16-3.12.1-6.25.02-9.38-.1-3.98,1.04-7.72,2.6-11.24.88-2,1.01-4.36,2.42-6.01,2.03-2.37,4.31-4.53,6.6-6.65,2.47-2.3,5.28-4.17,8.78-4.19,1.62-.01,1.57-.91,2.1-1.94,2.68-5.17,5.82-10.15,10.35-13.85,5.57-4.54,11.64-8.23,19.14-9,2.36-.24,4.63-1.25,7.15-1.12,5.8.3,11.16,1.81,16.37,4.42,1.81.91,3.03,2.21,4.42,3.45,2.48,2.23,3.13,2.24,5.67-.19.14-.14.29-.26.41-.42,4.1-5.24,10.04-7.51,16-9.49,5.98-1.99,12.81-1.13,19.55-.29,6.24.78,11.55,3.48,16.98,5.86,7.39,3.25,12.76,9.07,16.54,16.28.34.65.79,1.15.94,1.97.77,4.22.82,4.23,4.94,4.25,3.32.02,6.65.17,9.96-.04,4.89-.31,9.1,1.71,12.97,4.06,8.94,5.43,14.85,13.68,18.49,23.24,2.49,6.53,2.63,13.59.28,20.43-1.11,3.22-1.05,3.14,1.62,5.08,4.05,2.94,6.59,6.78,8.06,11.71,3.07,10.27-2.27,19.22-7.22,26.61-4.61,6.89-11.46,10.05-18.73,12.69-6.37,2.31-9.93,2.29-16.97.57-2.59-.63-5.31.78-5.11,3.39.34,4.51-2.05,8.27-2.83,12.44-.69,3.73-2.22,7.61-3.9,11.21-.63,1.35-.8,2.03.96,2.31.67.11,1.24,1.06,1.87,1.08,7.43.17,9.79,5.55,12,11.29,2.32,6.02,1.35,11.76-1.27,17.28-1.41,2.98-2.74,6.19-5.62,8.22-1.01.71-1.04,2.01-1.71,2.79-1.12,1.3-.64,1.53.65,1.5,2.78-.06,4.47,1.76,6.16,3.53,5.25,5.51,3.59,13.44-2.47,17.56-.27.18-.77.05-1.16.02-2.51-.21-1.98,2.11-1.55,2.74,2.42,3.53.78,6.92-.17,10.21-1.03,3.57-3.6,6.44-6.78,8-2.48,1.22-.44,1.79-.02,1.98,3.11,1.44,6.19,3.25,9.49,3.92,6.58,1.34,10.47,8.25,8.67,15.1-.2.75-.63,1.03.09,1.7,1.99,1.87,3.79,3.96,5.84,5.76,5.39,4.73,9.29,10.79,14.39,15.81,2.11,2.08,4.03,4.77,4.77,7.93.14.6.74.82,1.37.71.63-.11,1.06-.41.96-1.14-.18-1.28-.03-2.46-.72-3.82-3.14-6.19-4.91-12.83-6.54-19.6-1.02-4.2-1.68-8.55-3.12-12.73-.94-2.72-.45-5.78,2.4-8.33,3.53-3.16,7.55-5.52,11.35-8.2,1.08-.76,2.1-1.59,3.03-2.47,3.28-3.12,6.32-6.43,10.6-8.39,1.46-.67,3.39-2.07,2.95-4.55-.2-1.13.88-.85,1.52-1.16,4.26-2.08,8.85-3.19,13.33-4.62,5.44-1.75,11.21-1.9,16.75-3.4,2.91-.79,6.22-.25,9.34-.1,1.87.09,3.62,3.15,3.57,6.28-.09,5.74,2.02,11.32,1.2,17.1-.1.73.3,1.07.91,1.19.6.12,1.11-.1,1.44-.65,4.06-6.87,9.66-12.63,13.89-19.42,2.03-3.26,3.62-6.78,5.83-9.99,2.21-3.21,4.21-6.78,6.03-10.34,2.11-4.12,5.78-5.97,10.11-6.41,1.95-.2,4.16-.84,5.94,1.19,1.83,2.09,2.77,4.26,2.82,7.09.06,3.65-.8,6.93-2.36,10.19-1.09,2.28-2.16,4.65-2.4,7.25-.59,1.19-.68,2.58-1.52,3.65.16.23.23.35.23.35.04.05.06.04.05-.02-.03-.26-.08-.4-.11-.41.54-1.13,1.47-1.83,2.52-2.39Z"/>
        <path class="cls-2" d="M69.28,121.97c.66-1.16,1.07-2.86,2.14-3.6,3.66-2.52,6.62-5.75,9.84-8.73,1.06-.98,2.33-.77,3.58.26,1.95,1.61,2.89,3.97,4.56,5.73,3.89,4.11,7.74,8.3,12.03,11.96,4.01,3.42,9.2,5,13.89,7.35.31.16.77,0,1.16.02,1.92.07,3.08-1.27,2.08-2.86-4.21-6.65-6.12-14.7-12.67-19.97-3.78-3.04-6.99-6.79-10.39-10.28-2.11-2.16-2.14-4.27-.1-6.39,2.57-2.67,5.15-5.33,7.87-7.85,2.01-1.86,3.94-1.79,6.03-.05.9.74,1.9,1.51,2.45,2.49,2.6,4.63,6.65,7.97,10.45,11.42,5.3,4.81,7.94,11.02,10.45,17.37,1.39,3.52,2.48,7.16,4.35,10.49.35.62.54,1.33.84,1.99q2.62,5.82-1.62,10.06c-4.14,4.14-8.28,8.27-12.41,12.41-1.19,1.19-2.41,2.26-4.03,2.98-1.05.46-1.53.27-2.47-.17-8.18-3.78-16.4-7.48-24.68-11.04-2.34-1.01-4.11-2.55-5.83-4.29-3.02-3.05-5.91-6.25-9.14-9.06-3.07-2.67-4.86-6.36-7.8-9.09-.25-.23-.33-.64-.58-1.13Z"/>
        <path class="cls-2" d="M415.72,71.63c-1.95-.21-4.19.66-5.89-1.17-6.53-.24-12.51-3.38-19.06-3.52-1.31-.03-2.14-1.16-3.61-1.28-4.24-.34-5.89-2.43-4.55-6.12.6-1.66.85-3.18,1.03-4.85.49-4.53,2.65-5.61,7.2-4.66,4.32.9,8.57,2.26,12.92,2.69,2.46.24,4.53,2.12,7.13,1.35.83-.24,2.21.32,2-1.24-.16-1.17.98-2.66-.92-3.5-2.98-1.33-6.04-2.4-9.08-3.55-3.75-1.41-7.58-2.81-10.49-5.81-1.9-1.96-2.94-4.16-2.96-7-.04-6.61,1.51-12.86,4.22-18.78,2.36-5.15,10.1-8.2,15.55-6.7,4.22,1.16,8.45,2.52,12.77,3.06,4.43.56,8.64,2.06,13.08,2.47,1.51.14,2.45,1.07,2.49,2.61.12,3.95-.88,7.73-2.38,11.31-1.22,2.91-1.38,2.59-4.71,1.88-4.3-.92-8.57-1.97-12.88-2.88-1.44-.3-2.83-.14-4.27-1.1-1.42-.94-3.58.57-3.87,2.23-.32,1.8.58,3.07,2.2,3.48,5.31,1.33,10.26,3.51,15.16,5.88,2.69,1.3,4.39,3.53,6.08,5.81,1.89,2.55,1.75,5.73,1,8.25-1.25,4.19-1.84,8.55-3.34,12.66-1.12,3.07-3.84,4.86-6.15,6.73-1.34,1.08-3.55,1.87-5.66,1.76-.97-.05-1.95,0-3,0Z"/>
        <path class="cls-2" d="M289.56,43.48c-2.15,0-4.32-.21-6.44.06-2.03.26-3.7-.51-5.37-1.26-4.45-2.01-6.64-5.7-6.61-10.43.01-2.18-1.39-3.86-1.29-5.96.1-2.14-.02-4.3.03-6.44.15-7.41,4.55-11.95,11.48-13.45,5.65-1.23,11.4-1.93,17.15-2.65,3.96-.5,7.89-.73,11.85-.91.77-.03,1.74-.15,1.7.96-.15,4.19,1.83,8.14,1.27,12.41-.2,1.54-.65,1.73-2.04,1.93-6.11.9-12.14,2.32-18.37,2.32-2.28,0-3.04,1.1-3.12,3.74-.04,1.28-.02,2.18,1.78,2.13,4.68-.13,9.38.14,14.06-.12,2.77-.15,5.06,1.01,7.51,1.75,4.81,1.44,6.45,5.95,6.86,9.83.44,4.11,1.54,8.17,1.54,12.37,0,3.81-3.13,6.18-3.7,9.63-2.92,1.02-4.88,3.62-8.28,4.14-5.14.79-10.27,1.76-15.46,2.15-1.9.14-3.3,1.59-5.38,1.34-1.75-.21-3.61-.57-5.49.9-1.09.85-3.4.24-5.15.14-1.28-.07-2.22-1.07-2.3-2.16-.27-3.57-1.85-6.94-1.29-10.65.38-2.5,1-3.71,3.35-3.52,4.62.37,8.95-1.5,13.58-1.46,2.43.02,5.08-.89,7.71-1,1.43-.06,2.34-1.11,2.39-2.69.05-1.6-.98-3.02-2.61-3.08-3.12-.11-6.25-.03-9.37-.03Z"/>
        <path class="cls-2" d="M642.37,225.24c-.8-.07-1.41.03-2.04-1.2-2.07-4.05-4.61-7.85-6.92-11.78-1.4-2.38-1.66-2.53-3.71-1.5-3.41,1.71-4.14,2.65-2.92,4.77.62,1.09,1.17,2.28,1.88,3.36,2.99,4.56,5.69,9.32,8.34,14.08,1.76,3.17,1.63,3.2-1.34,5.17-2.13,1.41-4.15,2.9-6.61,3.83-3.6,1.37-4.11,1.35-6.21-1.82-5.03-7.61-9.6-15.49-14.19-23.37-1.46-2.5-2.81-5.14-4.61-7.49-2.05-2.68-1.64-4.57,1.28-6.34,6.55-3.96,13.16-7.8,19.71-11.75,6.72-4.06,13.41-8.15,20.07-12.31,2.01-1.26,4.51-1.65,6.12-3.67.81-1.02,2.19-.29,3.31-.41,1.59-.18.89,1.35,1.4,2,3.62,4.63,6.15,9.92,9.16,14.93,3.2,5.33,6.58,10.54,9.86,15.82.48.77.86,1.59,1.24,2.41,1.02,2.21.89,3.24-.89,4.39-2.91,1.88-6,3.48-8.84,5.46-1.23.86-1.84.82-2.89-.14-2.54-2.31-3.6-5.59-5.41-8.35-2.48-3.79-4.63-7.84-7.09-11.68-.6-.94-.3-1.71-1.59-.59-.91.79-2.26,1.07-3.44,1.52-1.28.5-1.11,1.2-.52,2.19,2.25,3.74,4.35,7.58,6.66,11.28,1.68,2.69,1.69,4.46-.59,6.41-2.23,1.92-5.27,2.61-7.43,4.71-.3.29-1.13.04-1.8.04Z"/>
        <path class="cls-2" d="M172.81,109.15c-2.36-.43-5.08-1.01-7.56-3.06-3.9-3.23-6.65-7.4-8.86-11.62-3.2-6.12-6.74-12.03-10.19-17.99-1.21-2.09-1.86-4.37-2.65-6.52-1.2-3.26.39-6.44,1.96-9.48,1.89-3.67,4.83-6.29,8.28-8.11,6.9-3.64,13.29-8.16,20.44-11.38,1.71-.77,2.49-1.23,3.74.26,2.49,2.98,4.29,6.39,6.13,9.77.63,1.15.55,2.93-.97,3.48-1.84.66-2.87,2.38-4.6,3.04-3.78,1.44-6.94,3.97-10.44,5.89-4.48,2.46-4.65,3.82-1.93,8.34,2.33,3.87,4.26,7.98,6.39,11.97.6,1.12,1.16,2.3,1.94,3.29,3.12,3.96,3.84,4.09,8.06.86.93-.71,2.03-.83,2.9-1.56.65-.55,1.51-.85,2.27-1.27-.83-.59-.88-1.59-1.3-2.38-1.64-3.05-3.56-5.94-5.3-8.94-.89-1.53-.57-3.04.93-3.96,3.72-2.28,7.48-4.51,11.3-6.62,2.77-1.53,3.71-1.31,4.95,1.21,3.62,7.36,8.09,14.22,12.27,21.25,1.44,2.42.78,4.38-1.76,5.96-6.19,3.85-12.71,7.12-18.83,11.12-4.52,2.95-9.62,4.97-14.87,6.43-.54.15-1.16.02-2.32.02Z"/>
        <path class="cls-2" d="M101,172.79c.15,4.25-1.11,7.43-3.22,10.81-3.34,5.38-7.4,10.18-11.03,15.3-1.5,2.11-2.98,4.26-4.47,6.39-1.8,2.55-3.64,3.14-6.01,1.65-2.66-1.68-4.82-4.04-7.71-5.44-.98-.47-.94-3.52-.41-4.71.86-1.91,3.63-2.43,3.55-4.98,3.64-2.86,4.88-7.62,8.32-10.6.96-.83.8-2.09,1.63-2.87.88-.83.71-1.53,0-2.44-1.02-1.3-2.31-1.36-3.6-.92-.66.23-1.12,1.05-1.68,1.6-3.04,3.04-6.27,5.91-9.07,9.16-3.53,4.1-8.1,4.73-12.89,4.2-2.48-.27-4.67-2.28-6.59-3.65-2.71-1.94-5.65-3.81-8.01-6.37-4.25-4.62-5.38-9.89-2.7-15.61,1.3-2.79,2.6-5.76,4.6-8.02,4.49-5.07,7.43-11.3,12.32-16.06,1.63-1.59,2.93-2.49,4.36-1.54,2.94,1.95,5.82,4,8.56,6.22,1.74,1.41,1.71,2.52.38,4.37-3.15,4.37-6.28,8.76-9.58,13.02-.71.92-.99,2.03-1.66,2.82-.95,1.12-1.07,1.81-.01,2.91,1.13,1.17,2.6,1.45,3.55.56,1.79-1.7,3.84-3.17,5.08-5.47,2.34-4.33,6.65-6.62,10.68-8.74,3.33-1.75,7.55-1.42,10.88.59,3.66,2.21,6.94,5.06,10.27,7.78,3.26,2.66,5.33,5.95,4.46,10.04Z"/>
        <path class="cls-2" d="M36.54,193.51c-.13.35-.19.74-.4,1.02-1.81,2.53-2.44,5.67-4.5,8.11-1.78,2.12-1.41,3.82,1.08,4.96,8.58,3.91,16.39,9.26,25.07,12.97,3.15,1.35,6.14,3.08,9.19,4.66,2.59,1.34,2.55,1.33,1.26,4.05-2.01,4.24-3.9,8.54-5.95,12.75-.98,2-1.6,2.08-3.91.94-10.05-4.95-20.1-9.91-30.11-14.92-.53-.27-1.17-.24-1.53-.52-1.89-1.44-3.74-4.12-6.04-3.13-1.5.65-1.97,3.67-2.95,5.6-.74,1.45-1.56,2.87-2.34,4.3-1.76,3.24-1.74,3.18-5.03,1.75-2.5-1.08-4.9-2.33-7.25-3.7-3.66-2.14-3.9-2.49-1.85-6.44,1.5-2.9,3.29-5.65,4.74-8.58,4.4-8.91,8.68-17.87,13.06-26.79.31-.64.77-1.22,1.11-1.87,1.76-3.31,3.32-3.88,6.54-1.86,2.79,1.75,6.22,2.37,8.51,4.9.49.54,1.35.85,1.3,1.79Z"/>
        <path class="cls-2" d="M362.52,40.54c0,2.93-.23,5.87.06,8.77.4,4.06-1.75,7.76-1.29,11.82.13,1.16-1.02,1.99-2.18,2.26-.74.17-1.55.02-2.33.03-4.37.09-8.53-1.92-12.98-1.23-1.22.19-2.15-1.02-2.31-2.11-.24-1.72-.72-3.93.08-5.16,1.45-2.23.95-4.43.99-6.63.11-6.24.33-12.5-.08-18.72-.22-3.36,1.37-6.25,1.32-9.47-.02-1.51.01-2.6-2.06-2.46-2.22.15-4.37-.03-6.59-.98-1.81-.78-4.16-.3-6.28-.39-.8-2.46-.18-4.98-.32-7.47-.11-1.94-.08-3.9,0-5.85.06-1.76,1.1-2.96,2.83-2.8,2.77.25,5.69-1,8.36,1.03.74.56,2.28.09,3.45.09,7.02,0,14.05.1,21.06-.03,4.58-.09,8.93,2.04,13.56,1.23,1.13-.2,1.14.73,1.14,1.52,0,3.9.06,7.8-.02,11.7-.04,2.07-1.06,3.1-3.1,3.15-3.51.08-7.02.06-10.53,0-1.29-.02-1.82.51-1.57,1.7.73,3.49-1.58,6.56-1.25,10.06.3,3.29.07,6.63.07,9.94Z"/>
        <path class="cls-2" d="M623.25,159.55c-.89,2.02-3.13,2.08-4.45,3.45-4.75,4.92-10.67,8.45-15.67,13.14-3.66,3.44-8.13,6.03-11.78,9.59-1.46,1.43-4.49,1.19-5.52-.48-2.27-3.69-5.24-6.8-7.9-10.17-1.28-1.63-1.29-2.75.41-4.4,3.14-3.06,6.57-5.87,9.99-8.5,2.77-2.12,5.61-4.36,8.25-6.57,3.64-3.04,7.59-5.76,10.9-9.27,2.95-3.14,3.21-2.9.49-5.71-.95-.98-2.04-1.84-2.87-2.92-1.22-1.6-2.95-3.25-3.19-5.05-.24-1.84,2.15-2.99,3.52-4.26,1.63-1.52,2.84-3.41,5.23-4.28,3.6-1.3,4.17-1.33,6.33,1.64,1.99,2.73,3.99,5.5,6.36,7.88,5.1,5.13,8.6,11.6,14.02,16.45,1.26,3.68,4.97,5.48,6.77,8.88.95,1.8.81,2.38-.33,3.78-2.33,2.88-5.86,4.22-8.32,6.93-.92,1.01-2.44.88-3.53-.36-2.5-2.86-5.87-4.96-7.47-8.61-.19-.44-.76-.71-1.26-1.15Z"/>
        <path class="cls-2" d="M593.45,123.34c-1.01-.03-1.91-.07-2.59-1-.46-.62-1.05-1.16-1.64-1.66-2.19-1.84-3.64-4.52-6.43-5.67-1.97,1.84-4.14,3.5-5.87,5.54-4.4,5.21-9.22,10.03-13.37,15.48-2.82,3.69-6.51,6.71-9.85,9.99-1.12,1.1-2.57,1.2-3.53.02-2.93-3.63-7.12-5.75-10.38-9-1.65-1.65-1.44-2.65-.29-4.31.39-.56.65-1.34,1.21-1.81,4.91-4.09,8.25-9.61,12.83-14,4.3-4.12,7.43-9.28,11.95-13.23,1.81-1.58,1.71-3.19-.42-4.71-2.32-1.66-4.49-3.43-6.52-5.42-1.66-1.62-1.5-2.78-.42-4.92,1.82-3.64,5.14-5.65,7.68-8.47.8-.89,2.39-.57,3.53.62,2.5,2.6,5.48,4.75,8.03,7.21,4.71,4.54,10.11,8.31,14.52,13.12,3.38,3.7,7.95,5.98,11.19,9.86,1.1,1.31.81,1.88.13,3.34-1.72,3.68-5.17,5.62-7.62,8.52-.38.45-1.4.35-2.13.51Z"/>
        <path class="cls-2" d="M446.74,80.13c.42-4.28,2.49-6.98,3.55-10.05,3.35-9.72,7.78-19.02,11.25-28.69.53-1.46-.19-1.88-.67-2.05-2.23-.79-3.98-2.75-6.42-2.83-1.15-.04-1.64-.82-2.44-1.24-3.87-2.01-4.31-2.8-2.48-6.57.71-1.46,1.58-2.85,2.08-4.41,1.51-4.66,2.55-5.31,7.04-3.63,5.4,2.01,10.65,4.45,16.08,6.36,7.32,2.57,14.27,6.1,21.73,8.28,1.02.3,2.01.85,2.9,1.45,1.41.95,2.27,2.57,1.25,3.92-2.13,2.84-2.94,6.24-4.29,9.37-.62,1.44-1.06,1.63-2.29,1.67-2.32.08-4.12-1.38-6.22-1.95-1.74-.47-3.12-2.12-5.17-1.63-1.49-2.14-2.7.06-2.78.65-.76,5.9-4.15,10.83-6.25,16.17-2.02,5.14-3.42,10.71-6.66,15.38-.1.14-.04.37-.11.54-3.86,10.23-1.85,7.51-10.53,4.79-2.4-.75-4.64-1.99-7.02-2.82-1.82-.64-2.87-1.57-2.59-2.71Z"/>
        <path class="cls-26" d="M183.11,278.69c.14-2.83-.25-6.19,1.09-9.54,1.38-3.43,3.21-5.96,6.6-7.78,4.44-2.39,8.93-3.98,13.95-4.61,2.17-.27,4.81-.6,6.45-2.72.46-.6,2.57-5.66,2.35-6.61-.79-3.52,1.4-6.61,1.32-10.07-.04-1.73,1.31-3.31,2.47-4.8,3.49-4.51,8.41-6.75,13.53-8.38,4.14-1.33,7.23-3.61,9.7-7.03,1.96-2.73,3.65-5.67,6.14-7.99.78-.73,1.45-2.15,2.79-1.27.89.59,1.73,1.34,1.67,2.81-.15,3.9.72,8.01-.24,11.66-1.24,4.72-3.33,9.35-7.83,12.32-3.23,2.13-6.6,3.84-10.39,4.6-.83.17-1.3.67-1.94,1-3.45,1.77-3.85,2.44-2.54,6.02,1.09,2.99,2.39,6,1.73,9.2-.89,4.28-1.08,8.99-5.18,11.88-1.33.94-2.75,1.99-4.28,2.35-3.93.93-7.74,2.26-11.88,2.58-3.34.26-6.8,1.42-9.36,4.16-3.21,3.44-7.07,6.35-8.68,11.05-.65,1.88-1.26,3.78-2.1,5.57-.63,1.35-1.83,1.41-2.41.14-1.36-2.97-3.05-5.86-2.97-9.31.04-1.56,0-3.12,0-5.24Z"/>
        <path class="cls-15" d="M217.11,296.25c-.37-3.84.8-7.61,3.48-11.02,1.61-2.05,5.04-4.04,7.46-4.98,3.42-1.33,7.17-.8,10.52-2.98,5.35-3.48,6.93-6.87,4.33-12.45-2.42-5.2-1.79-10.47.91-15.05,2.66-4.52,6.11-5.94,11.68-6.94,3.63-.65,5.9-3.1,6.17-6.78.1-1.36-.09-2.75.05-4.1.15-1.48-.63-3.09.61-4.43,2.36-2.57,3.74-5.9,7.33-7.53,2.29-1.05,4.38-1.96,6.89-1.8.58.04,1.26-.03,1.5.57.31.8-.17,1.38-.71,2.01-1.16,1.36-3.89.97-3.92,3.54-3.35,3.14-3.63,7.15-3.6,11.44.02,2.8.25,5.57-.53,8.51-1.09,4.1-3.59,5.7-7.13,6.78-2.82.87-5.69,1.56-7.7,4.16-.98,1.26-1.52,2.84-.67,3.53,1.5,1.22.59,2.84,1.46,4.18,1.99,3.04,3.05,6.45.58,9.9.64,4.43-2.46,6.84-5,9.67-2.97,3.31-7.25,3.33-10.91,4.87-4.45,1.87-8.93,3.63-12.14,7.52-1.89,2.3-2.62,5.19-4.15,7.66-.83,1.35-.96,3.41-3.09,3.57-1.12.08-3.18-2.76-3.38-4.73-.16-1.55-.03-3.12-.03-5.14Z"/>
        <path class="cls-10" d="M193.57,240.05c1.24,5.35-2.75,8.92-5.02,13-1.86,3.34-5.5,5.17-9.1,6.07-3.09.78-5.7,2.44-8.4,3.78-3.47,1.73-4.81,5.54-5.48,9.23-.9,4.99,1.37,9.46,2.84,14.03.62,1.94-.03,3.28-1.85,3.57-5.04.8-8.46-.99-10.96-5.83-3.14-6.08-4.93-12.58-4.02-19.36.52-3.9,2.21-7.65,4.82-10.87,4.04-4.99,9.79-7.17,15.36-9.65,2.64-1.17,5.35-2.19,8.07-3.16,3.58-1.28,5.31-3.96,5.58-7.55.16-2.07,1.77-3.67,1.37-5.98-.18-1.04,1.29-1.99,2.87-2.16,1.93-.2,1.44,1.33,1.98,2.14.3.46.9,1,.82,1.39-.82,3.9,2.01,7.38,1.13,11.36Z"/>
        <path class="cls-15" d="M511.29,266.28c1.87,0,3.35,1.2,3.62,3.29.26,2.02-.37,4.19,1.22,5.94-.26,4.79,3.09,7.78,5.71,11.06,1.56,1.97,3.5,3.66,5.34,5.39,2.51,2.36,2.97,2.42-.46,5.26-2.25,1.86-5.13,2.88-7.26,5-3.72,3.71-7.01,7.7-9.23,12.54-1.23,2.67-3.19,2.61-4.62.04-.7-1.25-1.35-2.58-1.73-3.95-2.19-8.09-7.75-13.42-14.41-17.9-1.22-.82-1.91-2.06-1.42-3.46.44-1.25,1.37-2.04,2.97-2.15,6.95-.48,11.63-4.39,14.5-10.45,1.46-3.07,3.96-5.79,3.63-9.62-.13-1.5,1.39-.81,2.14-.99Z"/>
        <path class="cls-21" d="M392.51,435.13c-2.14,0-3.89.04-5.64-.02-.6-.02-.94-.45-.92-1.17.01-.73.36-1.13.98-1.13,5.85-.01,10.74-3.27,16.09-4.94,6.67-2.08,13.12-5.01,19.43-8.06,4.57-2.21,8.83-5.09,13.09-7.9,4-2.64,8.57-4.46,11.83-8.19.28-.32,1.07-.18,1.63-.24.6-.07,1.26.04,1.44.63.15.48.17,1.08-.37,1.58-3.52,3.21-6.45,7.05-10.67,9.51-3.98,2.31-7.41,5.43-11.33,7.88-8.57,5.36-17.44,9.57-27.61,11.08-2.77.41-5.51.87-7.92.98Z"/>
        <path class="cls-20" d="M565.15,272.49c.21.69-.45.89-.78,1.22-.92.93-1.95,1.57-3.18,2.18-6.66,3.31-6.61,3.42-11.04,10.37-.19.3-.26.69-.46.98-1.24,1.68-2.61,1.79-3.62.12-1.11-1.86-2.36-3.76-2.88-5.82-.99-3.94-2.92-7.13-5.82-9.92-2.22-2.13-1.98-4.11.88-5.28,5.58-2.28,9.91-5.81,12.92-11.02.38-.65,1-1.25,1.65-1.64.9-.55,1.84-.64,2.01.82.15,1.28,1.47,2.05,1.24,3.62-.46,3.05,1.31,5.24,3.24,7.43,1.73,1.97,4.5,3.12,5.04,6.1.06.32.52.56.81.84Z"/>
        <path class="cls-34" d="M408.15,547.01c-.07.14-.11.36-.21.4-.34.13-.82.39-1.03.26-5.33-3.31-9.84-7.41-12.75-13.11-1.4-2.75-3.46-5.22-4.56-8.07-1.03-2.69-2.19-5.4-2.93-8.15-1.14-4.23-2.65-8.39-3.08-12.81-.25-2.58,1.11-5.43-1.13-7.72,1.54-2.4,1.28-5.1,1.12-7.71-.1-1.66.76-2.74,1.88-3.21.44-.19.54,1.94,1.53,2.75.4.32.14,1.46.16,2.23.2,8.4,2.12,16.49,4.76,24.4,1.37,4.1,3.02,8.13,4.48,12.19,1.51,4.19,4.58,7.4,6.13,11.53.89,2.36,4.12,3.38,4.83,6.2.08.33.53.56.8.84Z"/>
        <path class="cls-17" d="M560.69,51.55c-.11.35-.15.73-.32,1.03-1.64,2.83-3.14,5.76-4.99,8.45-2.01,2.92-3.53,3.18-6.66,1.17-2.62-1.68-5.01-3.7-7.81-5.16-1.53-.8-1.84-2.38-.97-3.94,1.6-2.85,3.25-5.68,4.96-8.47,1.17-1.9,3.43-1.63,4.67-.95,3.69,2.01,7.1,4.56,10.59,6.92.27.18.35.62.52.94Z"/>
        <path class="cls-17" d="M520.84,42.86c-.22-.87.45-1.35.77-2.01,1.04-2.16,2.13-4.21,3.63-6.14.73-.94,1.08-2.6,2.3-2.85,1.59-.33,3.23-.2,4.81,1.01,2.75,2.11,5.83,3.78,8.72,5.7.87.58,1.15,1.28.48,2.42-1.85,3.15-3.39,6.49-5.82,9.27-1.24,1.42-2.48,2.23-4.43.85-3.14-2.21-6.45-4.16-9.68-6.24-.72-.47-.97-1.16-.78-2Z"/>
        <path class="cls-22" d="M552.29,299.12c1.04-.17,1.57.59,1.91,1.17,3.1,5.35,6.07,10.78,9.2,16.11.44.74.81.99.02,1.72-1.11,1.03-2.19,1.96-3.67,2.5-2.75,1-4.56,3.03-5.78,5.68-.37.81-.24,1.82-1.17,2.48-.69.49-1.12,1-1.69.03-.74-1.25-1.59-2.47-2.12-3.81-1.16-2.95-2.81-5.31-5.26-7.13-1.09-.81-1.46-2.14-2.2-3.13-.95-1.26-.29-1.79.43-2.12,4.85-2.22,7.02-6.32,8.18-11.2.28-1.2,1.13-1.89,2.15-2.3Z"/>
        <path class="cls-18" d="M446.79,415.61c-.17.28-.29.58-.5.81-8.1,9.08-17.94,15.41-29.7,18.67-.59.16-.97.55-1.46.72-1.43.5-2.93.83-4.4,1.22-.47-2.97,2.39-2.08,3.62-3.04,5.63-4.39,12.54-6.6,18.42-10.59,3.04-2.06,6.08-4.12,9.17-6.12,1.21-.79,2.52-1.43,3.83-2.06.22-.11.65.23,1.02.38Z"/>
        <path class="cls-42" d="M452.81,417.25c-.44,2.56-1.98,4.54-3.98,5.92-2.37,1.64-5.1,2.75-7.59,4.24-.69.41-1.37,1.05-1.99.54-1.07-.89.33-1.2.68-1.58,3.36-3.59,6.98-6.88,11.43-9.12.39-.2.47-1.27,1.23-.49.12.12.14.33.21.49Z"/>
        <path class="cls-43" d="M593.52,358.91c-.11-2.31.11-4.49,2.35-5.86-.03.81.36,1.2,1.17,1.17-1.17,1.56-2.35,3.13-3.52,4.69Z"/>
        <path class="cls-23" d="M454.02,409.15c-.21,1.69-1.89,2.29-2.79,3.47-.03.04-.54-.22-.75-.42-.1-.09-.05-.38-.01-.57.39-1.65,2.06-2.22,2.93-3.47.2.31.39.62.63.99Z"/>
        <path class="cls-49" d="M461.14,254.55c-4.52.48-9.31-.54-13.76-3.42-.71-.46-1.64-.76-2.32-1.41-3.45-3.29-3.34-4.68.84-6.87,3.55-1.87,6.58-4.12,8.42-7.86.55-1.12,1.07-1.48-.54-1.55-3.62-.15-7.02,1.39-9.92,2.87-3.51,1.79-6.86,1.67-10.4,1.84-3.45.16-6.52-.44-9.66-2.22-2.71-1.54-3.53-3.53-3.79-6.18-.12-1.17.28-1.6,1.59-2.33,4.6-2.56,8.85-5.76,12.38-9.76.2-.23.2-.79.07-1.11-.25-.62-.56-.48-1.17-.15-3.35,1.79-6.72,3.49-10.38,4.65-6.74,2.14-12.97,2.38-18.69.71-4.14-1.21-7.09-3.68-9.66-7.05-2.65-3.48-3.95-7.12-3.5-11.49.16-1.58-.5-1.75-2.18-.99-2.37,1.07-3.41,2.87-3.68,5.43-.34,3.3.59,6.32,1.79,9.25.4.98.55,1.3-.55,1.27-3.77-.1-7.53.36-11.26-1.09-4.61-1.8-9.95-7.91-9.89-12.81.01-.87.53-2.27-.76-2.42-1.24-.14-2.71-.68-3.87.46-1.66,1.65-3.28,3.36-4.98,4.96-4.37,4.12-9.55,6.53-15.58,6.13-3.64-.24-7.07-1.7-10.01-4.06-4.3-3.45-6.37-7.85-5.83-13.42.11-1.16.07-2.35,0-3.51-.05-.73.42-2-.39-2.07-.9-.07-2.49.54-2.7,1.2-.5,1.55-1.91,2.72-1.63,4.64.72,5.03-1.18,9.46-3.41,13.81-.26.51-.67.91-.85,1.4-.57,1.53-.28,3.46-2.1,4.41-1.26-2.35-4.14-.02-5.63-1.96-.53-.69-1.66-.9-2.42-1.17-7.32-2.56-9.08-9.6-12.4-15.29-.85-1.46.01-3.84-.16-5.78-.33-3.85.13-10.12,1.2-13.78q2-6.85,9.05-13.83c2.03-2,2.12-2.1,4.11,0,1.16,1.23,1.96,1.45,2.94-.02.82-1.23,1.94-2.34,2.44-3.68,3.99-10.74,12.94-15.64,22.87-19.12,2.61-.91,5.76-.15,8.64-.41,4.69-.42,8.7.87,12.73,3.34,2.03,1.25,4.18,2.59,5.05,4.39,1.71,3.5,4.72,6.11,6.06,9.79.67,1.83,1.9,3.88,3.91,3.48,2.28-.45,1.82-2.91,1.99-4.84.24-2.72-.55-5.2-1.24-7.72-.84-3.05-.82-4.5,1.3-5.47,5.24-2.42,9.78-6.67,16.08-6.45,3.17-1.98,6.69-.94,10.06-1.16,1.17-.08,2.66-.48,3.46.07,2.84,1.94,6.41,1.2,9.33,3.05,3.52,2.23,7.48,3.62,10.95,6.14,5.01,3.65,9.51,10.53,8.64,15.78-.89,5.39,1.27,10.58,1.16,15.92-.02,1.09.62,1.21,1.47,1.24,1.99.07,3.46-.08,4.53-2.44,1.33-2.95,2.49-5.71,2.28-9.05-.18-2.89.79-3.64,3.65-3.76,4.73-.19,9.15,1.4,13.69,2.31,1.96.39,2.51,2.95,4.71,2.8,4.39,4.22,8.75,8.45,11.61,13.94,1.34,2.57,3.2,4.99,3.68,7.82.35,2.01,1.54,3.73,1.39,5.95-.19,2.83-1.05,5.46-1.83,8.08-.97,3.27-1.74,6.7-4.05,9.48-.41.49-1.11,1.17-1.18,1.8-.1.88-.61,2.08.37,2.7.57.36,1.62.46,2.21.18,2.02-.97,3.99-2.08,5.42-3.91.69-.88,1.43-1,2.42-.23,5.93,4.62,7.99,15.63,3.28,22.88-3.18,4.89-6.21,9.75-10.45,13.84-2.76,2.67-5.88,3.83-9.58,3.83-1.56,0-3.13,0-5.36,0Z"/>
        <path class="cls-49" d="M349.44,248.69c1.37,0,2.74-.05,4.1.01,3.96.19,7.88-.22,11.87,1.01,3.53,1.09,7.63-.82,11.19,1.32,3.31-.86,6.28,1,9.47,1.26,4.18.33,8.17,2.12,11.93,3.68,3.76,1.56,8.1,2.32,11.29,5.49.8.8,1.98,1.65,3.01,2.46.94.73.91,1.63,0,2.39-1.49,1.24-2.62,2.99-2.76,4.68-.29,3.38-2.11,6.57-1.28,10.05.48,2,1.11,4.39,3.04,5.02,2.08.68,1.84,1.01,1,2.65-1.46,2.86-3.92,4.94-5.47,7.69-1.73,3.06-3.33,6.13-3.28,9.79.04,2.74-.07,5.47.03,8.21.13,3.47,2.4,5.38,5.84,5.87,6.05.87,9.79-2.5,12.84-6.81,2.63-3.71,5.04-7.65,6.99-11.75,1.26-2.64,3.33-3.28,5.63-3.71,1.7-.32,3.56.21,5.25-.12,3.45-.67,5.97,1.03,7.23,3.61,1.65,3.38,4.99,6.81,1.92,11.12.29,5.5-3.31,9.02-6.7,12.44-3.5,3.52-6.84,7.17-10.96,10.16-3.98,2.89-8.83,3.44-12.78,6.09-.41.27-1.35-.27-.99-.7,1.77-2.08.57-4.47.91-6.68.11-.73.23-1.77-.7-1.91-.86-.13-1.92-.45-2.72.43-.64.7-.94,1.54-1.35,2.37-2.85,5.87-6,11.59-9,17.38-3.74,7.22-7.94,14.08-13.15,20.4-2.56,3.1-5.23,6.05-8,8.95-7.57,7.93-16.93,13.06-27.17,16.48-5.23,1.74-10.57,3.53-16.31,3.14-4.73-.32-9.5.41-14.18-1.16-5.7-1.92-11.26-3.62-16.43-7.23-4.76-3.32-8.01-7.64-10.25-12.27-2.22-4.59-3.92-9.7-5.15-14.87-1.08-4.56-2.35-9-2.2-13.72.03-.99.33-1.46,1.22-.57.98.99,2.2.48,3.3.51,2.93.08,5.89-.25,8.79.08,6.61.75,12.27-2.38,18.25-4.17,1.1-.33,2.54-.69,3.31-1.96.26-.44.83-1.55,1.49-.19,2,4.12,5.98,6.47,8.85,9.82,1.92,2.24,4.97,2.9,7.38,3.28,7.41,1.15,14.85,2.64,22.5.38,3.28-.97,6.76-1.59,10.15-2.38,7.22-1.69,11.33-6.83,15.67-12.08,3.86-4.66,5-9.9,4.64-15.69-.05-.77.11-1.6-1.01-1.68-.97-.07-.97.74-1.41,1.29-1.94,2.39-4.06,4.67-6.34,6.73-.55.5-1.82,1.26-2.33,1.21-3.88-.41-7.37,2.2-11.24,1.31-3.21-.73-6.4-1.5-9.57-2.38-.67-.18-1.28-.83-1.75-1.39-2.37-2.82-5.97-3.6-9-5.23-2.05-1.1-4.73-.94-6.73,1.44-2.55,3.02-6.09,4.71-9.59,6.48-2.4,1.22-4.4.86-6.89.49-4.66-.69-7.94-3.02-10.91-6.36-2.53-2.85-2.37-5.46.06-8.49,2.85-3.55,6.99-4.98,10.76-6.67,4.43-1.99,7.72-5.2,10.31-8.75,2.58-3.54,3.22-8.27,2.8-12.82-.06-.62-.82-1.51-1.42-1.68-1.63-.45-.69,1.21-1.15,1.82-1.42,1.87-1.92,4.3-2.8,6.43-2.24,5.41-6.41,8.51-11.08,11.33-3.45,2.07-6.88,4.16-10.29,6.3-2.67,1.67-3.02,4.65-3.57,7.29-.44,2.11-.71,1.51-1.87.6-.47-.37-1.33-.34-1.97-.87-3.43-2.82-7.42-4.04-11.84-3.94-2.15.05-4.3-.04-6.45.02-1.44.04-1.65-.87-1.4-1.86,1.35-5.29,2.86-10.55,4.17-15.85,2.26-9.17,5.62-17.98,8.68-26.89,1.47-4.28,2.96-8.55,4.76-12.69,1.15-2.65,1.83-5.44,3.33-8.03,1.52-2.62,3.02-4.15,6.11-3.9,1.49.12,3.1.31,4.2-1.15,7.17-.13,14.03-3.1,21.31-2.37,1.94.19,3.91.03,5.86.03Z"/>
        <path class="cls-49" d="M279.26,456.74c.95,5.64-1.68,11.94-1.26,18.52.41,6.42.92,13.02-.1,19.3-1.71,10.62-.51,21.2-.96,31.78-.22,5.16-1.33,6.94-6.29,8.43-3.65,1.09-7,2.89-10.77,3.8-2.61.63-5.3,1.24-7.9,2.08-2.51.82-5.2.78-7.68,1.34-4.16.94-8.28.83-12.44,1.05-3.46.18-6.52-1.8-10.08-1.31-3.53.48-6.71-1.93-10.16-2.17-3.41-.24-6.46-1.66-9.39-2.87-8.19-3.36-14.28-9.49-19.13-16.84-4.12-6.25-7.16-13.05-9.24-20.18-.74-2.53-2.24-4.55-3.02-6.98-.6-1.85-.06-3.36,1.76-3.62.57-.08,1.18-.07,1.76,0,4.8.51,9.41-1.08,14.15-1.41,5.13-.35,10.4-1.12,15.4-2.32,4.06-.98,8.2-1.77,12.25-2.86,5-1.35,9.13-4.39,13.83-6.25,1.01-.4,1.58-1.07,2.2-1.72,1.54-1.61,2.52-.37,3.22.7,1.09,1.66,1.95,3.48,2.78,5.29,1.58,3.43,4.45,5.52,7.59,7.26.71.39,1.95.54,2.66-.26.15-.17-.49-1.15-.86-1.69-1.35-1.97-.42-3.24,1.21-4.4,6.71-4.81,9.63-12.06,12.32-19.4.81-2.21,1.78-4.66,1.57-6.89-.29-3.18,1.81-5.21,2.75-7.73.59-1.57,2.46-2.67,4.3-3.46,1.37-.59,2.33-.85,3.65-.05,1.22.75,2.57,1.56,3.94,1.72,1.47.17,2.01.49,1.95,2.02-.11,2.73-.03,5.47-.03,9.13Z"/>
        <path class="cls-49" d="M523.05,455.07c2.89-.41,6.34.75,9.64-1.09,1.51-.84,2.17.11,2.23,2.12.07,2.29-2.04,4.15-1.2,6.55-1.85,1.22-.42,3.61-1.34,4.67-1.43,1.65-.76,3.28-1.01,4.91-.45,2.92-1.65,3.88-4.7,3.96-3.98.1-7.68-1.13-11.25-2.56-3.85-1.54-7.54-3.5-11.27-5.33-8.52-4.19-15.86-9.8-21.3-17.72-.6-.88-.97-1.39-.28-2.46,2.66-4.15,5.25-8.36,7.69-12.64.34-.6.55-1.31,1.02-1.92.69-.89,1.02-.43,1.71.06.94.66.56,1.8,1.22,2.45.66.65,1.15,1.62,2.34,1.41.55-.1,1.28.02,1.62-.3.69-.64-.37-.78-.55-1.2-1.51-3.48-3.73-6.82-4.4-10.45-1.2-6.51-4.91-12.27-5.24-18.96-2.64-4.58-2.91-10.09-5.75-14.64-.49-.79-1.58-1.61-1.32-2.97.26-1.35-.61-2.86,1.9-3.35,2.03-.4,3.68-2.41,5.71-3.1,4.4-1.51,7.98-4.04,10.95-7.53,1.74-2.05,4.5-2.76,6.2-4.93.91-1.16,1,.14,1.05.76.06.78-.29,1.75.06,2.31,2.55,4.13.19,6.81-2.27,9.9-1.63,2.05-4.02,3.92-3.7,7.25.38,3.93,1.47,5.12,5.54,6.26,1.86.52,3.76,1.32,5.6,2,4.16,1.53,5.34,5.02,6.4,8.49.57,1.89.95,4.07,1.06,5.94.16,2.87,1.9,5.39,1.43,8.3-.04.28.34.62.52.94.28-.25.56-.5.83-.76,2.12-2.02,3.48-4.31,3.34-7.42-.2-4.49.37-9-2-13.26-.85-1.53-1.51-4.16,1.77-4.7,3.71-3.8,8.04-6.81,12.26-9.99,3.38-2.54,2.53-6.31,1.35-9.42-.73-1.91.51-4.29-1.62-5.83-.43-.31.15-1.26,1.19-1.4,1.43-.2,2-1.7,3.06-2.49.6-.45.49-1.1.32-1.58-.21-.6-.9-.56-1.49-.58-2.85-.1-5.37,1.19-7.98,1.98-4.41,1.34-8.59,1.79-12.24.13-1.46-.66-2.99-1.32-4.38-2.15-1.22-.73-2.86-1.72-2.74-3.11.07-.82,2.2.07,3.17-.41,4-1.98,8.58-1.48,12.68-3.36,3.93-1.8,8.53-1.78,12.58-3.59,1.16-.52,2.72.53,3.87-.54.82-.76,1.28-.7,1.27.45-.01,1.2,1.5,1.62,1.23,3.04-.95,5,1.73,9.81,1.01,14.73-.31,2.13,2.69,4.07.58,5.56-1.16.82-3.25-1.54-5.26-1.01-.37.1-.79-.05-1.16.03-.34.08-.65.31-.97.47.21.28.39.58.64.82,1.32,1.34,3.08,2.58,4.56,3.12,3.42,1.25,5.78,3.54,8.04,6.03,2.28,2.53,5.05,4.51,6.82,7.68,1.61,2.9,4.63,4.9,6.56,7.83,3.74,5.68,6.01,11.97,8.44,18.21.68,1.74-.42,3.11-1.81,3.85-4.75,2.49-8.67,6.23-13.37,8.76-4.62,2.49-9.36,4.75-14.07,7.06-2.92,1.43-6.04,2.53-8.76,4.26-1.24.79-2.94,2.13-3.76,2.04-2.99-.32-5.48,1.47-8.33,1.39-3.32-.09-6.76.52-9.92-.19-2.57-.58-5.08-1.83-7.71-2.55-.49-.13-.67-.97-1.42-.8-1.1.24-2.71-.65-3.24.47-.6,1.27-.71,2.95.38,4.3,2.86,3.52,6.7,5.26,11.08,5.75,2.12.24,4.29.04,6.91.04Z"/>
        <path class="cls-49" d="M211.25,380.02c0,2.15-.04,4.3,0,6.44.06,2.62-.13,5.15,1.03,7.77,1.02,2.29-.88,5.36,1.3,7.66-.5,4.9,1.11,9.96-1.15,14.75-1.42,3.01-1.36,6.41-2.22,9.6-.94,3.45.67,6.95,1.88,10.26.55,1.51.18,1.62-1.19,2.26-4.13,1.91-8.46,3.17-12.75,4.58-4.13,1.36-8.31,2.56-12.45,3.88-2.98.95-5.92,2.13-9.12,1.98-1.3-.06-3.26.76-3.75-.5-.51-1.3-1.05-2.74-1.35-4.11-.43-1.97-.05-3.99-1.16-5.99-.83-1.5.55-3.35,2.1-3.32,2.94.05,3.69-2.53,5.53-3.75.6-.4.58-1.05.43-1.55-.17-.59-.81-.59-1.39-.7-4.54-.86-9.19-.87-13.71-2.21-3.69-1.09-6.59-3.15-9.48-5.41-1.07-.84-2-1.87-2.91-2.88-7.11-7.94-15.35-14.73-23.27-21.78-5.92-5.26-11.35-10.98-17.19-16.3-4.23-3.85-7.11-8.76-10.51-13.25-.37-.49-.49-1.36-1.07-1.87-1.64-1.44-3.01-3.03-3.26-5.31,2.44-.48,4.12,1.44,5.91,2.37,3.42,1.77,6.57,4.28,9.4,6.94,2.37,2.22,4.82,4.3,7.82,5.22,4.33,1.32,7.03,4.82,10.38,7.32,2.83,2.11,5.96,4.08,8.38,6.82,1.48,1.67,4.38,2.28,3.47,5.56-.23.84,1.32,1.16,1.69.7,2.3-2.9,5.58-4.58,8.29-6.97,6.39-5.63,13.11-10.78,21.04-14.2,1.35-.58,1.85-.94,3.36-.18,1.99,1,3.5,2.64,5.56,3.52,1.12.48,1.41,1.5.43,2.81-1.07,1.43-1.65,3.21-2.55,4.78-2.82,4.97-3.08,10.38-2.64,15.85.11,1.35.93,2.8,1.81,3.89.78.96,1.51,2.68,3.07,2.27,1.89-.5.84-2.31.86-3.48.11-6.02,1.64-11.6,4.52-16.9.53-.98.95-1.97,1.75-2.78,6.57-6.68,11.74-14.34,16.08-22.62,1.1-2.09,2.94-3.7,3.59-6.14.31-1.16,1.46-2.42,3.1-1.93,2.14.64,4.13-2.76,5.73-.83,1.76,2.13-1.27,3.86-2.03,5.75-2.14,5.32-3.37,8.99-3.37,13.83v8.2Z"/>
        <path class="cls-49" d="M361.54,426.89c-3.13,1.06-6.3-1.57-9.66-1.06-3.37.51-6.25-1.37-9.49-1.32-1.47.02-1.53-1.24-1.08-3.04.25-1.02,1.19-1.56,1.22-2.42.06-1.35.68-1.7,1.82-1.5,4.83.84,9.5-.66,14.14-1.35,6.45-.96,12.8-2.77,19.04-4.85,7.39-2.46,14.24-6.2,21.46-9.03,3.08-1.21,5.21-4.1,8.59-4.74.2-.04.32-.49.47-.75-.34-.13-.72-.44-1-.37-2.99.79-6.11,1.3-8.9,2.54-7.48,3.34-15.73,4.28-23.18,7.73-2.12.98-4.92-.33-7.02,1.43-6.04-.1-11.74,2.53-17.78,2.28-1.38-.06-1.8,1.44-3.03,1.24-.84-.14-2.15.51-2.18-1.06-.02-1-.62-2.33,1.37-2.49,6.44-.51,12.45-2.86,18.56-4.7,3.33-1,6.13-3.28,8.98-5.11,6.14-3.94,12.21-8.16,17.28-13.53,5.27-5.58,9.87-11.67,13.73-18.33.57-.98,1.13-1.64,2.97-.65,6.5,3.48,12.56,7.53,18.58,11.74,5.49,3.84,11.29,7.32,17.73,9.49.51.17,1.18-.06,1.53.54.38.63,1.84.82.47,2.11-2.75,2.58-5.89,4.59-8.92,6.79-5.81,4.22-11.68,8.4-18.02,11.72-3.83,2.01-7.3,4.89-11.65,5.77-1.08.22-1.6.88-2.39,1.35-3.61,2.15-7.53,3.45-11.55,4.66-4.88,1.47-9.75,3.07-14.74,3.97-5.64,1.01-11.04,3.51-17.34,2.96Z"/>
        <path class="cls-49" d="M348.45,219.37h1.17c.39-.4.82-.74,1.17-1.17h1.17c.39-.4.82-.74,1.17-1.17,2.4-1.04,3.64-3.38,5.55-4.98,1.43-1.19,2.46-1.31,3.18.32,1.21,2.77,3.62,4.37,5.44,6.53,2.5,2.95,5.73,3.91,9.48,4.04,3.26.11,6.57-.02,9.4-1.38,1.92-.92,2.91-1.25,4.25.48,2,2.59,4.75,4.35,7.38,6.19,2.6,1.82,6.1.95,8.82,2.78.71.48,2.02-.11,3.15-.67,2.43-1.2,4-.16,4.3,2.54.78,6.92,5.21,10.87,11.13,13.24,2.02.81,4.63.4,6.93.16,2.84-.3,4.51,1.31,5.33,3.42,1.44,3.69,2.92,7.11,6.9,8.8.95.4,1.96,1.42.29,2.43-.46,5.36-4.21,9.68-4.77,15.01-.06.61-.5,1.04-1.2.87-.34-.08-.8-.19-.97-.45-5.16-7.77-12.36-13.53-19.47-19.3-4.19-3.4-19.56-10.1-25.61-11.57-2.48-.6-5.07-.95-7.6-1.42-2.55-.46-5.3.29-7.7-1.26-6.74.74-13.26-1.62-20.01-1.25-6.62.36-13.39-.68-19.87.32-5.17.8-10.71.7-15.56,3.28-3.12-.85-5.81,1.5-8.89,1.2-1.89-.19-2.88-1.22-2.05-2.93,2.22-4.6,3.43-9.52,4.96-14.35,1.78-5.57,4.39-10.89,4.38-16.92,0-.66.38-.98,1.08-1.02.7-.04.93.35,1.27.85,3.22,4.78,9.84,8.48,15.24,8.54,2.73.03,5.47,0,8.2,0,.73-.66,1.49-.62,2.27-.1-2.22,3.99-6.45,5.63-11.61,4.44-2.68-.62-5.15-1.81-7.6-3.03-.47-.24-.96-.7-1.52-.22-.03.02.51.53.73.84,4.05,5.74,15.35,7.45,21.27,3.17,1.42-1.03,3.67-2.29,3.38-3.72-.34-1.65-3.14.4-4.43-1.1-.33-.29-.47-.6-.4-.94.07-.34.15-.52.24-.52Z"/>
        <path class="cls-49" d="M166.69,337.81c-1.76,0-3.51-.04-5.27,0-2.61.07-5.15-.14-7.77,1.03-2.29,1.03-5.03.15-7.74,1.02-2.65.85-5.84.91-8.79,1.42-2.64.45-5.28,0-7.59-1.39-3.96-2.38-8.28-1.97-12.6-2.13-5.63-.22-10.12,1.98-14.01,5.78-1.68,1.64-3.35,3.27-4.95,4.98-.72.77-1.47,1.16-2.52,1.02-.75-.1-1.93.12-2.17-.27-.73-1.14.74-1.45,1.27-1.98,6.98-7.09,14.03-14.11,21.09-21.13.51-.51.83-1.4,10.04,2.66,13.9,4.34,20.4,3.51,25.83-1.13,1.77-1.51,3.81-3.14,2.98-5.87-.82-2.68-3.38-3.06-5.68-3.36-10.86-1.42-20.92.91-30.29,6.56-.64.39-.69-.08-.39.8,1.46,4.26,3.67,7.29,8.78,6.92,1.94-.14,3.91-.02-1.23-3.92-8.41-5.17-7.95-6.04-7.02-6.95,4.07-3.93,7.95-8.06,12.05-11.95,4.01-3.79,7.16-8.3,9.99-12.89,1.35-2.19,1.85-2.56,3.88-1.5.61.32,1.55.14,2.31.03,3.22-.47,1.07,1.28,1.1,2.34.09,3.07-.71,6.23.38,9.19,1.94,5.27,6.75,6.36,11.51,7.19,2.08.36,4.29-.03,6.43.08,6.57.34,11.51-2.74,13.16-9.84.48-2.06,1.38-2.14,2.64-1.85,3,.71,5.96,1.58,8.88,2.56,8.9,2.99,17.86,5.83,26.63,9.19,7.73,2.96,15.28,6.4,21.1,12.68,1.86,2,2.92,4.12,3.13,6.94.21,2.76,1.82,5.53,1,8.28-1.45,4.89-.52,9.9-1.29,14.72-.41,2.58-.97,5.12-.96,7.74,0,.74-.34,1.04-.95,1.16-.61.11-1.39-.14-1.36-.68.14-2.49-1.48-4.53-1.33-7.13.33-5.64.12-11.31.1-16.97-.01-2.93-.7-4.2-2.34-4.53-2.33-.48-5.34.95-5.69,3.49-.26,1.88-2.07,3.24-1.4,5.37.24.77.45,2.64-.36,2.57-1.52-.13-.62-1.79-.71-2.77-.39-4.38-2.82-6.74-7.29-8.77-4.1-1.87-8.22-2.04-12.53-2.32-8.11-.54-16.02,1.86-24.1,1.26-3.2,1.64-6.66,1.12-10.05,1.17-1.76,1.38-4.12-.27-5.86,1.17Z"/>
        <path class="cls-49" d="M526.3,510.18c-1.56,0-3.12-.04-4.68,0-3.59.11-6.9-.82-10.38-1.75-7.7-2.07-14.26-6.2-21.05-10-.64-.36-1.31-.79-1.77-1.35-3.94-4.79-9.53-7.76-13.62-12.39-1.63-1.84-4.16-2.51-5.78-4.5-1.01-1.25-1.25-2.37-.74-3.63,2.46-6.07,3.71-12.51,5.58-18.75.23-.76.77-1.33.92-1.95.39-1.61.34-3.89,2.16-4.06,1.49-.14,1.81,2.22,2.4,3.51,3.3,7.18,9.16,11.98,15.34,16.32,6.54,4.59,13.58,8.39,21.26,10.79,5.33,1.66,10.65,3.42,16.3.87,1.3-.58,3.09-.03,4.64-.1,1.36-.06,1.54.63,1.53,1.78-.05,5.66-.02,11.32-.02,16.97,0,2.44-1.91,4.52-1.21,7.13.29,1.08-.75,1.1-1.53,1.1-3.12,0-6.24,0-9.36,0Z"/>
        <path class="cls-49" d="M166.56,483.21c-.78,0-1.56,0-2.34,0-3.75-.04-3.87-.08-2.56-3.65.36-.99.22-1.86.34-2.78.85-6.54-1.25-12.92-1.15-19.42.02-.94-.98-1.14-1.17-1.86-.09-.35-.05-.8.1-1.11.31-.64,1.28-.72,1.48-.46,1.35,1.7,3.18,1.07,4.83,1.11,2.73.07,5.47-.08,8.19.04,5.69.25,10.88-1.5,16.25-3.15,7.79-2.39,15.6-4.71,23.29-7.4.67-.24,1.39-.11,2.13-.54,1.78-1.04,3.74-1.78,5.62-2.63.69,1.86,1.41,3.71,2.06,5.59,2.06,5.97,3.66,12.11,6.17,17.93.75,1.74.05,3.34-1.78,4.23-7.52,3.65-14.99,7.24-23.5,8.37-4.75.63-9.43,1.82-14.23,2.46-2.76.37-5.78.14-8.26,1.1-2.66,1.02-5.36.31-7.73,1.14-2.61.91-5.14.98-7.76,1.03Z"/>
        <path class="cls-49" d="M100.05,308.43c28.71-20.72,35.01-20.31,39-15.35.75.94.18,1.14-.26,1.7-2.51,3.21-6.26,4.95-9.09,7.82-10.27,10.44-20.64,20.76-31.04,31.07-2.14,2.12-4.13,4.35-6.88,5.94-2.76,1.59-3.52,5.38-6.27,7.27-.32.22-.54.57-.84.81-.25.2-.55.33-.82.48-.14-.33-.4-.67-.39-1,.07-7.84-3.87-13.17-10.46-16.91-1.17-.66-1.26-1.29-.14-2.52,4.96-5.42,10.65-10.04,16.24-14.73,2.46-2.07,5.13-3.95,7.24-6.37,2.17-2.48,5.02-4.1,7.53-6.03,5.65-4.34,10.54-9.62,16.58-13.51,1.02-.66,1.14-2.75-20.4,21.33-23.07,22.95-22.53,22.35-21.87,21.88,4.41-2.76,8.21-6.33,12.51-9.24.47-.32.89-.73,1.28-1.16-.44.38-.85.79-1.33,1.11-4.31,2.9-8.1,6.48-12.47,9.29-.66.47-1.21,1.06,21.87-21.88Z"/>
        <path class="cls-24" d="M319.1,434.04c.05-3.57.17-3.8,3.19-2.12,4.62,2.57,8.14-.28,11.94-1.96.5-.22.86-.78,1.25-1.22,1.12-1.23,2.15-.72,2.8.36,2.14,3.58,4.16,7.24,6.23,10.87.09.16.41.31.39.41-1.02,5.14,3.56,10.27.03,15.41,0,8.08-4.23,15.07-5.82,22.74-.14.67-.53.97-.88,1.4-.48.59-.97,1.2-1.66.2-.32-.46-.8-.84-1-1.34-2.02-4.89-5.64-8.2-10.05-10.99-5.22-3.3-9.47-7.84-13.52-12.44-1.84-2.09-2.94-4.85-3.61-7.86-.58-2.6-.71-5.16-1.06-7.74-.31-2.25,1.49-3.8,1.31-5.97-.12-1.52,1.35-.99,2.18-1,4.23-.03,3.75-.36,3.59,3.14-.33,7.09,3.05,12.78,6.86,18.22,1.82,2.6,4.95,3.95,7.72,5.28,1.87.89,4.41,1,6.3-1.12,1.99-2.24,3.37-4.61,2.3-7.6-1.33-3.73-2.8-7.43-4.47-11.02-.55-1.18-.58-2.91-2.28-3.4.29,1.49-.14,2.96.33,4.54,1.23,4.09,2.34,8.26,2.02,12.63-.12,1.67-.57,1.9-2.12,1.26-2.56-1.05-4.63-2.88-6.05-5.03-3.13-4.73-6.03-9.66-5.94-15.66Z"/>
        <path class="cls-3" d="M211.84,347.19c-7.29-.3-13.66,2-20.22,1.17-3.39,1.89-7.08,1.07-10.65,1.13-2.47.04-4.54,1.64-7.15,1.3-2.37-.31-4.96-.65-7.13,1.07-.12.1-.38.04-.58,0-5.2-.74-10.22,1-15.32,1.43-5.12.44-10.36.17-15.32,1.15-3.62.71-7.13.84-10.7.9-2.47.04-4.54,1.62-7.15,1.3-2.37-.29-4.79.41-7.17.8-3.15.52-6.65,1.14-10.12-.71-1.98-1.05-4.98-.27-7.52-.16-1.25.06-2.04,1.05-2.3,2.19-.8,3.45-3.15,3.91-6.21,3.71-1.73-.11-2.87-2-4.81-1.3-.36.13-.95-.61-.19-1.05,3.29-1.92,5.97-5.42,10.33-4.68,2.28.38,3.77-1.51,5.98-1.34,1.97.15,3.92.3,6.08-.84,2.12-1.12,5.25.39,7.6-1.41,3.69.89,7.05-1.06,10.64-1.35,4.54-.37,9.08-1.58,13.55-2.64,1.68-.4,3.35-.72,4.94-.61,1.86.14,3.04-1.19,4.79-1.38,7.88-.84,15.67-2.59,23.66-2.24,5.78-2.1,11.92-.18,17.66-1.32,10.22-2.03,20.43-.35,30.61-1.06,1.94-.14,3.32.49,4.5,1.94.48.59,1.34,1.11.96,1.92-.47,1-1.13,2.03-2.49,2.04-2.35.01-4.69,0-6.27,0Z"/>
        <path class="cls-24" d="M595.87,338.64c-.06,1.68-.31,3.16-1.06,4.84-5.32,11.83-12.17,22.79-19.16,33.63-1.88,2.91-3.98,6.03-6.84,8.37-.96.78-2.14,1.49-2.35,3.12-.15,1.2-1.31,1.07-2.17.3-.15-.13-.32-.25-.41-.42-2.28-4.03-6.54-6.07-9.48-9.44-.59-.68-.8-.77.24-1.43,3.88-2.47,7.06-5.71,9.61-9.59.94-1.43,2.25-2.64,3.51-3.81,1.27-1.18,1.67-2.85,2.78-4.17,3.06-3.64,5.68-7.63,7.78-11.97,2.18-4.51,5.61-8.23,8.45-12.33.83-1.21,2.17-1.47,3.29-2,3.75-1.77,5.72-.43,5.8,3.74,0,.39,0,.78,0,1.17Z"/>
        <path class="cls-24" d="M612.29,354.02c.81,3.1-1.37,5.76-2.96,8.29-4.69,7.46-9.35,15.03-14.91,21.84-4.59,5.62-9.17,11.36-14.68,16.22-.81.71-1.83.42-2.46,1.18-1,1.21-1.89.92-2.83-.13-2.15-2.39-3.53-5.42-6.19-7.37-.75-.55-.18-.88.18-1.24,2.47-2.48,4.93-4.98,7.44-7.43,3.24-3.16,6.09-6.6,8.32-10.58.64-1.14,1.86-1.97,2.83-2.92,5.63-5.58,10.87-11.44,14.99-18.31,1.23-2.05,2.98-4.42,6.43-4.11,3.82.34,3.85.03,3.84,4.58Z"/>
        <path class="cls-19" d="M275.89,426.92c4.15.16,7.8-.92,10.54-4.24.32-.38.87-.93.78-1.22-.22-.68-1.1-.57-1.52-.37-3.82,1.8-7.87.96-11.83,1.13-.57.03-1.35.13-1.47-.51-.06-.33.61-.84,1.01-1.22,3.16-3.04,7.25-4.26,11.3-5.18,2.65-.6,5.79-.88,6.8,3.18.28,1.14,1.79,2,2.8,2.92,2.21,2,2.18,1.9.01,3.19-3.46,2.05-6.75,4.39-10.28,6.3-3.82,2.06-7.61,5.02-12.34,1.99-.42-.27-1.14-.13-1.71-.08-6.06.51-10.55-2.63-15.1-6.05-1.81-1.36-3.63-2.65-5.23-4.24-.7-.7-.27-2.36.76-2.43,2.44-.18,4.59-.77,6.82-2,2.82-1.55,5.4-3.18,7.7-5.45,3.68-3.62,8.34-5.34,13.45-5.6,3.31-.17,6.64-.09,9.95,0,.95.03,2.45-.8,2.67,1.16.2,1.9-.88,3.28-2.82,3.49-.19.02-.39.03-.58,0-6.13-.95-11.17,1.73-16.27,4.59-1.47.82-2.14,1.58-2.77,3.08-1.52,3.63.01,7.02,3.83,7.55,1.15.16,2.34.02,3.51.02Z"/>
        <path class="cls-24" d="M617.46,382.36c1.23,0,2.01.03,2.79,0,.62-.03,1.41.16,1.37.68-.16,2,.71,4.05-1.18,5.94-7.53,7.5-15.26,14.68-24.09,20.73-4.09,2.8-8.16,5.7-12.27,8.52-.94.65-2.13.84-2.18-.31-.13-2.96-2.13-4.99-3.13-7.5-.84-2.12-.77-3.52,1.1-4.33,3.93-1.7,5.89-5.69,9.69-7.59,3.46-1.73,6.41-4.4,9.51-6.77,3.47-2.65,6.33-6.36,10.83-7.55,2.64-.7,5.06-2.46,7.55-1.81Z"/>
        <path class="cls-24" d="M307.41,415.2c2.76-3.11,5.13-6.42,5.86-10.64.25-1.42,1.07-1.2,2.06-.8,1.84.73,3.75,1.27,5.55,2.08,4.92,2.23,10.08,2.64,15.37,2.31,1.23-.08,1.79.37,1.66,1.62-.04.38.1.82-.02,1.16-2.11,5.76-4.48,11.29-10.47,14.28-1.17.58-2.19.4-3.28.53-1.38.17-1.39-.7-1.52-1.77-.18-1.46-1.65-2.35-2.62-1.71-.94.62-1.8,1.43-2.55,2.29-2.31,2.66-5.15,2.34-7.83,1.11-1.4-.64-2.08-2.38-2.17-4.05-.09-1.74-.02-3.5-.02-5.25-.41-.26-.54-.52-.41-.78.13-.26.27-.39.41-.39Z"/>
        <path class="cls-3" d="M178.48,356.56c2.93-.64,5.91.72,8.98-1.01,2.3-1.29,5.57.74,8.28-1.23.89-.65,2.68-.24,4.02-.07,1.53.2.44.77.14,1.39-3.41,7.1-8.46,13.22-12.11,20.17-.32.6-.61.36-1.19.16-1.91-.64-3.55-1.84-4.38-3.42-2.62-4.94-7.4-7.79-10.88-11.87-.54-.64-1.66-.75-2.36-1.3-1.38-1.06-.86-.96.52-1.82,3.03-1.89,6.07-.31,8.99-1.01Z"/>
        <path class="cls-24" d="M517.65,393c-1.99-.81-3.94-1.74-5.99-2.38-1.55-.49-3.37.58-4.86-.68,1.1-1.1,2.45-2.04,3.25-3.32,2.24-3.6,4.55-7.14,3.82-11.85-.42-2.73-.08-2.66,3.22-1.81,3.91,1.01,7.84,2.41,11.87.11.68-.39,2.52-.67,2.39,1.31-.13,1.92,1.65,3.26,1.27,5.35-.36,2-2.05,3-2.91,4.61-1.99,3.7-6.36,5.26-9.28,8.27-.51.52-1.8.28-2.79.4Z"/>
        <path class="cls-19" d="M77.49,344.29c.25,4.51-.86,7.22-2.28,9.82-1.1,2.03-6.43,4.08-9.18,3.63-3.11-.51-5.76-2.8-5.88-6.29-.06-1.89-2.25-3.58-.9-5.12,1.45-1.66.17-3.6,1.4-5.35,1.08-1.53,2.08-3.12,3.49-4.33.81-.69-.04-2.64,1.82-2.35,1.49.23,2.94-.28,4.5.41,4.89,2.15,6.12,6.46,7.02,9.58Z"/>
        <path class="cls-31" d="M149.12,381.76c-.85.85-1.66,1.69-2.5,2.5-2.25,2.15-2.72,2.22-5.22.36-6.7-5.01-13.72-9.6-20-15.2-1.88-1.68-4.29-2.76-6.41-4.19-.61-.41-1.23-.95-1.07-1.88.19-1.08,1-.94,1.76-.92.58.01,1.17.05,1.75,0,4.54-.43,8.08,1,11.88,3.91,5.87,4.5,11.53,9.32,17.72,13.41.79.52,1.4,1.34,2.09,2.02Z"/>
        <path class="cls-27" d="M307.41,415.2v1.17c-2.09.19-3.73-1.36-5.92-1.26-4.64.2-4.68,0-4.63-4.93.05-4.59,1.31-8.72,4.7-12.02,1.56-1.52,2.59-1.6,4.46-.17,1.47,1.12,2.31,2.97,4.45,3.36.75.14.78,1.37.06,1.88-2.67,1.88-2.69,5.13-3.95,7.7-.53,1.08-1.63,3.29.83,4.26Z"/>
        <path class="cls-31" d="M290.47,378.72c.4.47.85.86,1.13,1.34,1.53,2.66,2.74,5.59,4.65,7.94,1.08,1.33,1.41,3.07,2.77,4.14-.97,1.1-1.88,2.26-2.93,3.28-2.04,1.99-2.76,4.67-3.93,7.12-.17.36.02,1.01-1.03.58-2.29-.94-3.48-2.01-3.65-4.28-.11-1.48.44-3.08-1.14-4.23-.28-.2-.17-1.15-.02-1.69,1.23-4.36,1.35-9.01,3.5-13.12.17-.32.37-.63.65-1.1Z"/>
        <path class="cls-5" d="M139.75,360.24c2.21-.84,3.59.38,4.99,1.89,4.14,4.45,8.59,8.56,13.91,11.62,1.17.67.86,1.41-.07,2.06-3.39,2.39-3.81,2.46-7.23-.02-4.67-3.38-9.38-6.73-13.8-10.42-1.33-1.11-3.02-1.49-4.16-2.79-.67-.76-.68-.85.34-1.39,1.94-1.03,3.88-1.37,6.02-.94Z"/>
        <path class="cls-5" d="M165.36,308.48c-4.7.16-8.52-.67-11.65-4.04-1.47-1.59-1.37-3.29-.91-4.78.47-1.53,2.16-1.73,3.86-1.81,2.18-.11,3.99.77,5.96,1.24,3.56.86,7.14,1.6,10.72,2.35.9.19,1.51-.29.89,1.45-1.66,4.69-4.68,6.26-8.88,5.58Z"/>
        <path class="cls-35" d="M166.79,371.81c-2.22.12-3.92-1.04-5.42-2.43-2.01-1.85-3.87-3.85-5.82-5.77-.82-.81-1.6-2.04-2.56-2.23-1.34-.26-1.86-1.19-2.68-1.91,1.13-.57,2.21-1.44,3.4-1.65,1.43-.24,3.07-.51,4.21,1.07.68.94,1.62,1.69,2.46,2.5,2.59,2.51,4.94,5.29,8.17,7.11.5.28,2.04.72,1.18,1.98-.52.76-1.17,1.59-2.36,1.34-.19-.04-.39,0-.58,0Z"/>
        <path class="cls-33" d="M125.56,342.97c-.22.29-.41.58-.64.83-.52.55-.99,1.13-1.91,1.05-5.89-.46-11.29,2.79-17.19,2.32-.97-.08-1.22.87-1.88,1.13-.45.18-1.22.32-1.53-.38-.08-.17.22-.61.45-.8,5.62-4.6,12.12-6.38,19.26-5.75,1.18.1,2.29,1.03,3.44,1.59Z"/>
        <path class="cls-30" d="M166.69,337.81c-.08-1.04.6-1.17,1.4-1.17,1.49,0,2.97,0,4.46,0,.08,1.04-.6,1.17-1.4,1.17-1.49,0-2.97,0-4.46,0Z"/>
        <path class="cls-11" d="M455.88,395.21c-.4-.34-.75-.67-1.14-.95-.68-.49-.92-1.15-.72-1.93.05-.18.7-.41.73-.36.53.71,1.67,1.01,1.57,2.14-.03.33-.25.64-.44,1.1Z"/>
        <path class="cls-6" d="M348.45,220.55h-2.35c.1-1.75,1.46-1,2.35-1.17v1.17Z"/>
        <path class="cls-43" d="M593.52,359.44c-.23.18-.52.55-.68.5-.45-.14-.53-.5-.22-.69.27-.17.6-.23.9-.34,0,.17,0,.35,0,.52Z"/>
        <path class="cls-6" d="M350.79,218.2c.03.81-.36,1.2-1.17,1.17-.03-.81.36-1.2,1.17-1.17Z"/>
        <path class="cls-6" d="M353.14,217.03c.03.81-.36,1.2-1.17,1.17-.03-.81.36-1.2,1.17-1.17Z"/>
        <path class="cls-2" d="M268.29,65.94c-2.04-5.59-4.16-11.16-6.18-16.76-1.04-2.89-1.26-6.37-3.06-8.63-2.91-3.67-5.36-7.72-8.57-11.13-3.37-3.57-6.38-7.38-9.1-11.46-.49-.73-1.12-1.66-2.3-1.45-2.38.42-5.04-1.06-7.18,1.04-6.35.96-11.87,4.39-18,6.03-2.72.73-3.8,2.48-3.82,5.48-.03,4.88,0,9.76,0,14.64,0,4.29-.01,8.59,0,12.88,0,1.74-.37,3.65.2,5.18,2.62,6.95,5.01,13.95,6.99,21.11.81,2.92,2.4,3.46,5.53,2.39,3.26-1.12,6.48-2.27,9.83-3.15,3.43-.9,3.92-2.22,2.71-5.73-.94-2.73-2.08-5.39-2.93-8.15-.23-.75-.57-2.21.72-2.43,3.81-.64,7.25-2.28,10.85-3.5.84-.29,2.35-.66,2.5,1.32.08,1.03,1.01,1.8,1.23,3.01.4,2.28,1.3,4.52,2.29,6.63.54,1.16,1.62,2.38,3.22,1.85,4.63-1.53,9.27-3.06,13.81-4.83,1.79-.7,2.05-2.19,1.26-4.35ZM238.75,48.1c-3.38.17-6.27,1.91-9.41,2.77-1.78.49-1.7.49-1.68-.99l-.03-11.08c-.13-1.8.63-3.01,2.22-3.48,1.7-.5,2.79.54,3.69,1.95,1.79,2.81,3.5,5.7,5.92,8.06.92.9.53,2.71-.72,2.77Z"/>
        <path class="cls-2" d="M545.08,63.67c-5.71-3.63-11.45-7.22-17.21-10.79-1.23-.76-2.5-1.5-3.84-2.03-1.42-.57-3.26-.9-4.26.27-1.77,2.1-4.27,3.11-6.27,4.85-3.95,3.44-8.09,6.7-12.36,9.74-2.96,2.11-5.44,4.42-7.37,7.59-3.62,5.97-7.68,11.67-11.48,17.52-2.3,3.54-1.8,5.73,2.02,7.72,2.77,1.45,5.41,3.06,7.93,4.88,2.21,1.6,2.97,1.51,4.81-.45.63-.67,1.16-1.34,1.57-2.27,1.02-2.32,2.46-4.46,3.85-6.6.61-.94,1.13-.92,2.53-.43,3.93,1.38,6.58,4.66,10.36,6.13,1.16.45.86,1.33.24,2.29-2,3.06-3.71,6.33-5.89,9.25-1.3,1.75-.27,2.59.78,3.25,3.7,2.32,7.57,4.37,11.27,6.71,1.78,1.13,3.15,1.09,4.43-.54.57-.73,1.23-1.33,1.74-2.19,2.45-4.1,5.37-7.92,7.72-12.06,1.26-2.23,2.84-4.33,3.81-6.61,1.54-3.64,2.06-7.69,3.59-11.4.34-.84.25-1.98,0-2.9-.45-1.72,1.4-2.57,1.28-4.22-.11-1.43-.73-3.15.91-4.28-.17-3.41.92-6.65,1.44-9.97.26-1.54-.4-2.7-1.61-3.47ZM526.37,78.44c-1.09,2.31-2.22,4.64-2.04,7.33.03.52-.02,1.12-.83.85-.16-.16-.28-.32-.44-.43-3.16-2.17-6.92-3.39-9.7-6.17-.65-.65-1.01-1.04.27-1.37,2.4-.62,3.35-3.05,5.18-4.4,1.19-.87,1.73-2.53,3.58-2.67.83-.06,1.42-1.66,2.4-1.06,1.13.69,1.98,1.82,2.95,2.76-1.9,1.33-.59,3.51-1.37,5.17Z"/>
        <path class="cls-19" d="M187.66,278.33c.62-2.41,1.2-4.9,1.9-7.36,1.24-4.35,5.27-5.55,8.75-6.87,1.93-.74,4.07-1.52,6.48-1.48,4.38.06,8.24-1.82,11.26-5.2,1.59-1.78,2.33-3.74,2.25-6.11-.09-2.73.41-5.55-.11-8.18-1.12-5.68,2.81-8.45,6.16-11.51,1.13-1.03,3.18-1.45,4.55-1.52,6.91-.35,12.23-2.89,15.5-9.2.14-.27,1.04-.3,1.53-.2.54.11.28.44.19.8-1.33,5.01-4.75,9.57-9.52,11.71-2.45,1.1-4.66,2.81-7.71,2.7-2.21-.08-5.5,3.1-6.67,6.01-.84,2.09-.82,4.25.69,6.41,2.08,3,1.56,6.7,1.05,9.98-.28,1.74-1.21,4.05-4.02,4.76-2.23.57-4.36,1.78-6.74,2.03-4.76.5-9.46,1.63-13.7,3.66-3.41,1.63-5.95,4.8-8.08,7.99-.51.77-1.03,1.56-1.68,2.19-.45.44-.71,1.52-1.6,1.07-.32-.16-.3-1.01-.47-1.67Z"/>
        <path class="cls-5" d="M248.86,269.09c-.27-1.83-.08-2.99-.87-4.35-2.91-4.97-1.37-9.84.64-14.82.7-1.74,2.64-.66,2.89-2.22,1.97.35,3.5-1.01,5.26-1.47,5-1.29,7.2-4.58,7.24-9.83,0-.78.12-1.58-.02-2.34-.68-3.68,2.05-5.81,3.71-8.43.32-.51.56-.54.83.02.08.16.14.34.16.52.03.19.09.46,0,.57-3.68,4.5-2.27,9.84-2.21,14.85.04,3.09-1.31,4.36-3.7,5.5-.77.37-1.48.21-2.16.45-3,1.04-5.84,2.17-7.99,4.82-2.89,3.55-3.54,6.85-1.5,11.31,1.91,4.17,1.82,8.41-.05,12.47-1.59,3.45-4.81,5.53-8.25,6.44-4.45,1.18-8.39,3.34-12.52,5.15-3.2,1.39-5.49,3.79-6.97,6.95-.15.32-.29.68-.34,1.03-.13,1.1-1.47,2.17-1.69,2.09-1.12-.41-.52-1.6-.66-2.49-.28-1.76,1.96-2.9,1.17-4.78,2.7-2.84,5-6.09,9.42-6.69,7.19-.99,11.76-3.72,15.89-9.55,1.11-1.57,2.26-3.5,1.74-5.18Z"/>
        <path class="cls-46" d="M156.21,268.88c-.76-4.69,1.74-8.6,3.58-12.51,1.46-3.12,5.16-4.11,8.24-5.29,3.72-1.42,7.66-2.23,11.38-3.64,2.35-.89,4.77-1.83,6.73-3.55.38-.34,1.01-.95,1.21-.84.87.46.67,1.67.38,2.07-1.4,1.94-1.95,4.83-4.14,5.8-3.47,1.53-6.49,3.8-10.21,5.1-3.99,1.39-7.96,3.63-10.9,7.67-3.76,5.16-3.02,10.19-2.13,15.59.03.16.38.28.38.42,0,.93.59,2.36-.3,2.66-1.5.5-.72-1.25-1.12-1.89-2.17-3.5-3.71-7.26-3.12-11.58Z"/>
        <path class="cls-47" d="M510.65,278.21c.75-.04.65.5.82,1,1.67,5.03,2.88,10.32,7.39,13.84.84.66,1.27,1.45.36,2.4-3.16,3.29-6.7,6.22-9.1,10.21-.66,1.09-1.58.55-2.2-.92-1.65-3.91-3.49-7.72-6.75-10.59-.8-.71-2.09-.93-2.73-1.72-.59-.74-2.27.42-1.91-1.16.13-.6,1.12-1.51,1.62-1.45,3.62.38,4.45-3.84,7.44-4.37.47-2.76,3.88-3.56,4.28-6.4.04-.31.52-.55.8-.83Z"/>
        <path class="cls-37" d="M541.9,269.18c.43-.23.78-.35,1.07-.56,3.02-2.27,7.09-3.38,8.38-7.61.21-.68.89-.54,1.12.08,1.12,2.89,2.27,5.71,4.49,8.04.61.65.61,2.17-.44,3.08-.29.25-.5.7-.83.79-3.35.98-4.79,4.22-7.31,6.17-1.36-2.53-2.64-5.11-4.11-7.57-.56-.93-1.55-1.61-2.36-2.42Z"/>
        <path class="cls-4" d="M558.37,316.13c-1.42.89-2.25,2.33-3.99,3.1-1.67.74-2.38,1.13-3.79-.26-4.78-4.7-4.73-5.93.7-9.93.61-.45.88-.37,1.26.1,1.66,2.05,4.28,3.29,4.99,6.13.08.32.53.56.82.85Z"/>
        <path class="cls-32" d="M470.79,247.52c-.87,0-1.5.15-2.01-.03-.86-.31-.85-1.1-.58-1.85.06-.16.24-.3.4-.41,2.92-2.12,6.13-3.65,9.57-4.73.33-.1.81-.09,1.1.08.83.49.13.86-.2,1.19-1.21,1.24-2.53,2.37-3.64,3.69-1.33,1.58-2.78,2.57-4.63,2.05Z"/>
        <path class="cls-16" d="M458.97,251.03c-2.54.17-4.88-.3-6.66-2.29-.34-.38-.65-.98-.63-1.47.04-1.1,1.01-.76,1.71-.97,2.25-.66,3.74,1.94,5.94,1.28.35,1.52,2.94.41,2.82,2.23-.15,2.37-2.12.78-3.18,1.22Z"/>
        <path class="cls-15" d="M384.8,299c0,.2,0,.39,0,.58-.08,3.77.59,5.5,2.85,7.7.36.35.65.98.62,1.46-.05,1.09-.99,1.07-1.72.9-3.13-.75-5.93.89-8.84,1.4-2.13.37-4.01,2.51-5.88,4.02-1.36,1.1-2.46,2.5-3.77,3.66-.33.29-1.08.33-1.54.18-.67-.22-.48-.96-.47-1.52,0-.15.26-.28.33-.44,1.09-2.89,1.07-4.2.87-7.46-.2-3.3-.81-6.86.13-9.88,1.45-4.65,3.26-9.45,7.92-12.22,1.68-1,3.44-1.26,5.37-1.22,1.15.03,1.81.54,2.4,1.29,1.02,1.29-.58,1.48-1.03,2.02-1.11,1.35-2.39,2.56-3.69,3.74-.88.8-.69,1.81-.55,2.68.23,1.42,1.5.74,2.35.87.38.06.78,0,1.17.01,1.15.06,1.68-1.97,2.95-1.04,1.08.79.32,2.17.52,3.27Z"/>
        <path class="cls-15" d="M324.99,279.85c.03.75.13,1.66-.98,1.64-.94-.02-1.46.57-1.85,1.16-.65,1-1.69,2.28-1.47,3.18.31,1.28,1.81,1.7,3.32,1.6,1.08-.07,2.32-.51,3.28.49-1.02.76-.89,1.92-1.21,2.98-.93,3.1-1.14,6.49-3.63,9.02-2.66,2.7-4.6,5.81-4.5,9.82.02.7-.35,1.03-1.01,1.08-.97.08-1.55-.44-1.3-1.34.62-2.22-.9-3.98-1.35-5.92-1.13-4.86-5.47-6.59-9.74-7.9-.95-.29-1.77-.5-2.42-1.24-.13-.15-.41-.33-.39-.41.1-.28.27-.71.47-.74.57-.1,1.16-.02,1.75-.04,4.39-.1,4.59-.06,5.72-4.62.98-3.94,3.02-7,5.71-9.96,2.44-2.68,5.25-1.85,7.98-1.57.81.08,1.96,1.29,1.61,2.75Z"/>
        <path class="cls-20" d="M401.22,278.18c-.02,3.76-.87,4.68-4.12,4.53-.76-.03-1.56.15-1.75-.95-.45-2.56-3.22-3.44-4.15-5.89-.61-1.61-3.03-2.45-5.22-2.58-3.82-.23-7.37.75-10.84,2.11-1.69.66-3.04.35-3.98-1.11-.96-1.5-.46-2.76.81-4.01,3.34-3.26,7.02-5.63,11.91-5.15,2.03.2,3.88-.61,6.08-.16,5.95,1.22,11.34,6.96,11.26,13.21Z"/>
        <path class="cls-21" d="M335.55,269.04c0,1.81.06,2.59-.02,3.36-.07.61-.43,1.02-1.16.92-1.27-.19-2.66.46-3.77-.8-.59-.67-1.64-1.11-2.17-1.64-5-5.07-10.36-3.46-15.69-1.01-1.23.56-1.87,1.73-3.32.27-1.41-1.43.08-2.23.16-3.28.28-4.2,3.39-5.77,6.33-7.13,1.88-.87,3.99-2.01,6.3-1.65,2.69.42,5.29,1.18,7.88,2.08,4.92,1.71,4.73,6.02,5.47,8.88Z"/>
        <path class="cls-34" d="M440.79,302.63c1.46,0,1.85-.04,2.23,0,.83.09,4.07,2.79,3.81,2.95-1.05.68-2.17,1.36-3.37,1.7-4.68,1.33-8.94,3.33-12.29,6.98-.78.85-1.09,2.06-.05,2.33,3.84,1.03,1.94,5.18,4.09,7.03-1.03,1.36-.78,3.25-1.64,4.56-1.46,2.22-3.79,3.62-6.09,4.9-.98.54-1.65-.3-1.69-1.57-.03-1.1.35-1.86,1.16-2.45,1.86-1.35,1.38-3.69,2.28-5.49.95-1.91-1.28-2.96-2.45-4.11-.94-.92-1.05.57-1.6.86-.94.5-1.76,2.38-2.39,1.88-1.01-.8-.24-2.16.26-3.48,1.92-5.08,5.23-9.03,9.19-12.53,2.72-2.41,6.35-2.53,8.54-3.57Z"/>
        <path class="cls-6" d="M322.93,370.72c-6.36-1.15-11.95-2.68-13.89-9.51-.14-.5-.66-1.07-.43-1.53.56-1.09,1.11-2.39,2.05-3.02.91-.61,1.6.72,2.26,1.34,1.97,1.85,3.62,4.47,5.94,5.4,2.35.94,5.37.21,8.09.21.78,0,1.56-.06,2.34.01,1.68.16,3.45-.5,5.03.53-1.07,1.1-2.29,2.1-3.19,3.33-2.21,3.03-5.99,1.5-8.21,3.24Z"/>
        <path class="cls-32" d="M278.17,455.18c-.3.43-.07,1.28-1.04.72-3.13-1.81-6.42-3.34-9.21-5.7-.57-.48-.42-1.06-.34-1.58.04-.24.54-.52.87-.57,4.38-.7,7.81,1.13,9.36,5.01.27.67.25,1.45.36,2.12Z"/>
        <path class="cls-29" d="M270.17,456.18c2.75.35,4.97,2,6.67,4.26.36.48.59,1.95-.35,2.64-.67.5-1.31.1-1.98-.4-1.89-1.4-4.49-1.63-6.01-3.68-.45-.6-1.2-1.06-.94-1.92.39-1.34,1.56-.66,2.62-.89Z"/>
        <path class="cls-6" d="M340.74,229.93c-3.91-.26-8.63-2.12-12.62-5.69-1.31-1.17-2.48-2.49-3.75-3.71-.64-.62-.86-1.34-.26-1.98.61-.65,1.25-.29,2,.13,2.22,1.22,4.52,2.28,6.81,3.35,5.97,2.79,7.48,2.83,13.51-.08,2.84-1.37,6.19-1.53,8.69-3.71.19-.16.76-.02,1.08.13.67.32.6,1.07.43,1.54-1.87,4.98-9.16,10-15.89,10.03Z"/>
        <path class="cls-8" d="M377.98,231.03c-6.21.64-10.98-1.94-15.11-6.05-.54-.53-1.51-1.21-1.43-1.68.25-1.45-2.31-2.17-1.03-3.48,1.57-1.6,2.11.8,3.19,1.17,2.13.72,3.82,2.26,5.49,3.49,1.87,1.37,4.24-.33,5.82,1.78.44.59,2.69.68,3.75-.24,1.75-1.53,4.15.11,5.42-.91,1.84-1.49,3.64-.77,5.45-1.02.3-.04.65.26.98.41-.17.27-.32.58-.53.82-.39.43-.85.8-1.22,1.25-2.85,3.46-6.35,5.31-10.78,4.47Z"/>
        <path class="cls-12" d="M410.6,240.07c0-.19.02-.39,0-.58-.09-.65.17-1.21.76-1.32.75-.14,1.29,0,1.64,1.03,2.4,7.08,8.64,9.05,14.94,10.5,1.47.34,2.64,1.28,4.15,1.37.59.04.88.59.81,1.26-.06.68-.46.84-1.04,1.08-2.05.86-3.79,1.66-6.28.49-2.39-1.12-5.19-1.26-7.61-2.8-3.82-2.44-7.28-7.18-7.37-11.04Z"/>
        <path class="cls-23" d="M402.3,235.75c-4.58.82-7.42-1.93-10.1-4.93-.3-.33-.3-1.03-.25-1.54.02-.21.57-.48.9-.5.96-.07,2.23-.42,2.84.04,3.41,2.58,7.61,3.1,11.43,4.6.48.19,1.14.07.87.85-.11.33-.51.57-.79.83-1.48,1.35-3.29.41-4.89.66Z"/>
        <path class="cls-20" d="M132.93,334.29c-3.16,0-5.57-.37-7.82.09-3.36.69-5.02-1.42-6.83-3.39-1.5-1.62-.98-5.14.54-6.93,3.05-3.59,7.47-4.53,11.51-6.15,5.13-2.05,10.57-.94,15.88-1.23,2.49-.14,4.8.33,7.13,1.17,3.48,1.26,4.91,4.87,2.62,7.74-2.84,3.56-6.5,5.98-10.86,7.63-4.33,1.63-8.68.71-12.19,1.08Z"/>
        <path class="cls-34" d="M194.31,328.43c-3.43.19-7.17-.19-10.82-2.22-1.76-.98-4.11-2.34-3.65-3.62.65-1.78.49-3.98,2.22-5.53,2.77-2.48,6.12-3.4,9.53-3.78,3.65-.41,7.43-.46,11.07.01,3.57.46,7.49.6,9.96,4.13,1.21,1.74,1.47,2.91-.08,4.39-1.75,1.68-3.06,3.89-5.67,4.6-2.63.71-5.13,1.92-7.92,2.01-1.36.04-2.72,0-4.63,0Z"/>
        <path class="cls-30" d="M158.48,336.63c-2.19.4-3.92-.81-5.75-1.65,1.71-.92,3.24-2.38,5.43-1.87,2.93.68,5.44-1.04,8.18-1.46.47-.07,1.08-.72,1.2-1.2.34-1.37-.87-.61-1.37-.86-.65-.33-.88-1.28-1.86-1.18-1.15.11-1.14-.74-1.13-1.53,0-.93-.14-1.68,1.26-2.07,1.4-.39,2.6-1.38,4.22-1.1.76.13,1.54.04,1.56-1.11.02-1.1-.69-1.07-1.47-1.26-.67-.16-1.25-1.07-1.86-1.06-1.65.03-3.48-.41-3.34-1.97.09-.97,2.42-.19,3.7-.46,1.17-.24,1.66.97,2.45,1.11,2.17.4,3.7,1.88,3.85,3.62.13,1.54-1.68,2.85-3.31,3.43-.58.21-1,.47-1.4.86-.48.47-1.03.69-.34,1.69,2.65,3.83,2.52,4.06-1.51,6.02-3.72,1.81-4.89,2.09-8.5,2.05Z"/>
        <path class="cls-9" d="M222.43,331.95c-1.76-.07-5.33-3.77-5.2-5.35.02-.19.58-.45.92-.48.33-.03.75.09,1.02.3.46.35.87.78,1.25,1.22,1.17,1.39,2.2,2.4,3.77.26.9-1.21,2.32-1.01,3.53-.02.85.69,1.68,1.34,2.7,1.88,1.8.94,2.86,2.04,3.4-.95.1-.55,1.34-1.46,1.54-1.35,1,.59.76,1.92.45,2.6-1.38,3.06-3.79,3.61-6.71,1.49-1.64-1.19-3.21-.99-4.74-.29-.68.31-1.23.83-1.92.7Z"/>
        <path class="cls-21" d="M518.47,497.59c-.23-2.22.15-4.74,2.29-6.7-.55-2.42,2.17-1.49,2.88-2.76.34-.62,1.26-.12,1.93.37,2.1,1.53,5.33-.65,7.18,2.43,1.7,2.83,3,5.42,1.52,8.77-1.57,3.54-4.1,5.6-7.99,5.78-5.01.24-7.79-2.43-7.81-7.88Z"/>
        <path class="cls-21" d="M173.36,462.1c1.55.41,3.54-.77,5.28.77,1.89,1.67,3.25,6.36,1.7,8.3-1.82,2.28-3.16,5.28-7.15,5.13-2.79-.1-4.92-.74-6.4-3-1.66-2.52-1.72-5.57-1.06-8.21.34-1.36,1.98-3.4,4.44-3.01.95.15,1.95.02,3.2.02Z"/>
        <path class="cls-38" d="M104.37,315.94c-.15.26-.27.55-.46.8-3.87,5.14-7.93,10.05-13.47,13.59-1.92,1.22-3.3,3.26-5.02,4.84-.3.28-1.15.33-1.52.11-.95-.57.08-.9.35-1.18,3.54-3.6,7.12-7.16,10.69-10.73,2.61-2.61,5.21-5.23,7.85-7.8.2-.2.75-.07,1.13-.03.15.02.28.24.45.39Z"/>
        <path class="cls-28" d="M105.56,321.82c-.16.26-.28.58-.5.79-5.19,5.2-10.39,10.39-15.56,15.61-.59.6-1.32,1.12-1.97.68-1.13-.78.19-1.16.53-1.58,1.81-2.14,4.32-3.67,5.35-6.5.24-.66.96-1.25,1.61-1.63,3.48-2.04,6.09-5.05,8.97-7.77.2-.19.76-.06,1.13,0,.15.02.28.25.43.41Z"/>
        <path class="cls-25" d="M94.71,316.84c.12.12.35.24.38.4.07.37.22.9.04,1.12-2.67,3.21-6.19,5.39-9.59,7.72-1.51,1.04-3.14,1.93-4.54,3.08-1.05.86-2.11,2.38-3.31,1.46-.59-.46,1.11-1.91,1.98-2.44,4.37-2.66,7.54-6.77,11.8-9.53,1.03-.67,2.16-1.21,3.24-1.81Z"/>
        <path class="cls-25" d="M77.57,330.77c.03.81-.36,1.2-1.17,1.17-.03-.81.36-1.2,1.17-1.17Z"/>
        <path class="cls-36" d="M330.33,436.3c-.18-.23-.55-.52-.5-.68.14-.45.5-.53.69-.22.17.27.23.6.34.9-.17,0-.35,0-.52,0Z"/>
        <path class="cls-38" d="M325.4,418.71c-1.15.05-1.97-.53-1.52-1.27,1.4-2.3,1.86-5.18,4.1-6.95.42-.33.61-1.63,1.61-.66.67.65,1.84,1.42,1.18,2.3-.69.92-.92,1.96-1.5,2.87-.59.93-1.89,1.31-1.95,2.66-.08,1.58-1.39.81-1.93,1.05Z"/>
        <path class="cls-7" d="M66.06,355.4c-1.68.44-3.23-.46-3.6-1.87-.42-1.6-2.51-3.07-.84-5.09.56-.67.78-1.61,1.26-2.36.3-.48.8-.83,1.21-1.24.2.5.62,1.03.55,1.49-.49,2.99.63,5.17,3.15,6.72.75.46,2.5-.96,2.3.91-.1.91-1.4,1.76-2.77,1.45-.37-.08-.77-.01-1.25-.01Z"/>
        <path class="cls-1" d="M157.17,301.36c.4.21.99.36,1.32.73,1.38,1.55,3.02,2.72,4.84,3.68.37.19.53.79.78,1.19-.53.12-1.09.41-1.58.33-2.7-.44-4.65-2.13-6.37-4.1-.19-.22-.14-.8,0-1.12.13-.28.56-.42,1-.72Z"/>
        <path class="cls-14" d="M167.76,306.11c-.13-.07-.6-.31-1.07-.55.52-.75,1.32-.65,2.04-.56.51.06.99.36,1.48.56-.52.74-1.3.6-2.45.55Z"/>
        <path class="cls-37" d="M144.44,320.22c1.97.59,4.03-.7,6.12.73,2.23,1.52,2.94,3.12.93,4.44-3.03,1.99-6.4,3.4-9.93,4.14-2.15.45-4.33.47-6.55,1.04-3.99,1.02-8.01-.67-11.81-2.17-1.44-.57-1.57-1.59-.31-2.43,1.8-1.22,3.66-2.96,5.63-3.18,5.35-.6,10.32-3.55,15.92-2.57Z"/>
        <path class="cls-48" d="M188.97,322.56c-.97,0-1.95-.01-2.92,0-.76.01-1.58.16-1.77-.92-.16-.92.45-1.51,1.07-1.88,2.67-1.6,5.53-2.87,8.67-3.03,3.3-.18,6.66.24,9.93-.15,1.81-.21,2.68,1.24,4.2,1.34.95.06.76,1.12.76,1.87,0,.78.05,1.67-1.09,1.58-2.11-.16-3.77,1.8-5.95,1.19-4.3-.21-8.6-2.01-12.9,0Z"/>
        <path class="cls-41" d="M188.97,322.56c.57.03,1.14-.06.93-.8-.15-.52-1.5-1.34-.21-1.45,3.42-.29,6.89-.14,10.33-.06.55.01.75.65.12,1.11-.54.4-.63.92.03,1.15.51.18,1.14.04,1.71.04-.14.33-.27.95-.41.95-4.03.05-8.05.05-12.08,0-.14,0-.27-.62-.41-.95Z"/>
        <path class="cls-45" d="M530.2,495.98c.09,1.07-2.2,3.82-3.52,4.23-.91.28-4.38-1.12-4.32-2.09.1-1.86.54-3.92,1.52-5.46.73-1.15,6.19,1.78,6.32,3.32Z"/>
        <path class="cls-44" d="M170.23,467.37c-.2-1.17.15-1.85,1.5-1.76.78.06,1.58.13,2.34-.02,1.42-.27,2.64.63,2.76,1.53.13.98-1.12,3.09-1.35,3.03-1.58-.4-2.06,2.19-3.61,1.22-1.46-.92-2-2.29-1.65-4Z"/>
        <path class="cls-13" d="M132.26,326.08c1.34,0,2.31-.04,3.27.01.63.04,1.73-.37,1.59.72-.07.59-.94,1.34-1.59,1.54-.89.27-1.99.31-2.86.02-1.92-.66-4.56,1.71-5.86-1.4,1.65-2.15,3.95-.12,5.44-.9Z"/>
        <path class="cls-40" d="M144.24,327.29c-.51.1-.9-.32-.97-.9-.1-.76.01-1.61,1.1-1.46.77.11,2.08-.63,2.12.72.01.48-.93,1.61-2.25,1.64Z"/>
      </g>
    </g>
  </g>
</svg>